<?xml version="1.0" encoding="utf-8"?>
<!-- Generator: Adobe Illustrator 24.0.3, SVG Export Plug-In . SVG Version: 6.00 Build 0)  -->
<svg version="1.1" id="Layer_1" xmlns="http://www.w3.org/2000/svg" xmlns:xlink="http://www.w3.org/1999/xlink" x="0px" y="0px"
	 viewBox="0 0 123.7 133.4" style="enable-background:new 0 0 123.7 133.4;" xml:space="preserve" fill="#267700">
<g>
	<path d="M61.8,0c10.2,0,20.4,0,30.5,0c3.6,0,4.9,1.3,4.9,4.8c0,14,0,28,0,42c0,2.5,0,2.5,2.6,2.5c6.4,0,12.9,0,19.3,0
		c1.9,0,3.5,0.5,4.3,2.3c0.8,1.9,0.2,3.6-1.2,5.1c-8.6,9-17.2,18-25.9,27c-5.4,5.6-10.8,11.1-16.2,16.7c-5,5.2-10,10.4-14.9,15.6
		c-1.9,2-4.6,2.1-6.5,0.1C47.9,105,37.2,93.9,26.5,82.8c-4.8-5-9.4-10-14.2-15c-3.5-3.7-7.1-7.4-10.7-11c-1.5-1.5-2-3.3-1.3-5
		c0.8-1.8,2.3-2.4,4.2-2.4c6.6,0,13.2,0,19.8,0.1c1.7,0,2.2-0.4,2.2-2.2c-0.1-14.1,0-28.2,0-42.3c0-3.7,1.2-4.9,4.9-4.9
		C41.5,0,51.6,0,61.8,0z M116.7,54.8c-0.9-0.4-1.5-0.3-2.1-0.3c-5.7,0-11.3,0-17,0c-4.3,0-5.6-1.3-5.6-5.6c0-13.8,0-27.5,0-41.3
		c0-2.4,0-2.4-2.4-2.4c-18.5,0-37,0-55.6,0c-2.4,0-2.4,0-2.4,2.4c0,13.9,0,27.8,0,41.6c0,3.9-1.4,5.3-5.3,5.3c-4.9,0-9.7,0-14.6,0
		c-1.5,0-3,0-4.9,0c0.8,0.8,1.2,1.3,1.6,1.8c3.8,4,7.7,7.9,11.5,11.9c6.5,6.8,13,13.7,19.6,20.5c4.3,4.5,8.8,8.8,13,13.5
		c2.6,2.8,5.4,5.3,7.8,8.3c0.9,1.1,1.7,1.2,2.9,0c9.1-9.6,18.3-19,27.4-28.5c2.3-2.4,4.6-4.8,7-7.3c3.2-3.3,6.4-6.7,9.6-10
		C110.3,61.4,113.4,58.2,116.7,54.8z"/>
	<path d="M61.8,128.3c18.6,0,37.3,0,55.9,0c2.7,0,3.9,0.8,3.9,2.6c0,1.8-1.1,2.6-3.9,2.6c-37.3,0-74.6,0-112,0c-0.4,0-0.8,0-1.2,0
		c-1.7-0.2-2.6-1.2-2.5-2.7c0.1-1.5,1.2-2.5,2.8-2.5C23.8,128.2,42.8,128.2,61.8,128.3C61.8,128.2,61.8,128.2,61.8,128.3z"/>
</g>
</svg>
