<?xml version="1.0" encoding="utf-8"?>
<!-- Generator: Adobe Illustrator 25.1.0, SVG Export Plug-In . SVG Version: 6.00 Build 0)  -->
<svg version="1.1" id="Layer_1" xmlns="http://www.w3.org/2000/svg" xmlns:xlink="http://www.w3.org/1999/xlink" x="0px" y="0px"
	 viewBox="0 0 108.9 29.3" style="enable-background:new 0 0 108.9 29.3;" xml:space="preserve">
<style type="text/css">
	.st0{fill:#11112E;}
	.st1{fill:#FFFFFF;}
	.st2{fill:#CDCDCD;}
	.st3{fill:#848484;}
	.st4{fill:#FFFFFF;stroke:#F7F7F7;stroke-width:0.5;stroke-miterlimit:10;}
	.st5{fill:#EB5646;}
	.st6{fill:#C84030;}
	.st7{fill:none;stroke:#C50000;stroke-miterlimit:10;}
	.st8{fill:none;stroke:#C50000;stroke-miterlimit:10;stroke-dasharray:7.8354,3.9177;}
	.st9{fill:none;stroke:#C50000;stroke-miterlimit:10;stroke-dasharray:7.1579,3.5789;}
	.st10{fill:#DDDDDD;}
	.st11{fill:#28683B;}
</style>
<g>
	<path class="st3" d="M108.9,27H10.3l7.1-19.7H102c3.8,0,6.9,3.1,6.9,6.8V27z"/>
	<path class="st4" d="M107.9,25H10.5l7-19.7H101c3.8,0,6.8,3.1,6.8,6.8V25z"/>
	<g>
		<path class="st5" d="M19.4,8.6c-0.1-1.3-0.6-2.5-1.2-3.6c-0.6-1.1-1.5-2.1-2.5-2.9c-1.3-1-2.7-1.6-4.3-1.9
			c-0.4-0.1-0.8-0.1-1.2-0.2C9.9,0,9.5,0,9.2,0c-0.3,0-0.7,0.1-1,0.1C5,0.8,2.6,2.5,1.1,5.3c-0.6,1-0.9,2.2-1,3.3C0,9.4,0,10.2,0,11
			c0.1,1,0.4,2,0.8,2.9c0.6,1.1,1.3,2.2,1.9,3.3c1,1.8,2,3.5,3,5.3c1,1.8,2,3.5,3.1,5.3c0.3,0.5,0.6,1,0.9,1.5
			c0-0.1,0.1-0.1,0.1-0.2c0.6-1,1.2-2.1,1.8-3.1c1.1-1.9,2.1-3.7,3.2-5.6c0.9-1.5,1.8-3.1,2.7-4.6c0.4-0.7,0.8-1.4,1.2-2.1
			C19.4,12.1,19.6,10.4,19.4,8.6z M9.7,16c-3.4,0-6.1-2.8-6.1-6.1c0-3.4,2.8-6.1,6.1-6.1c3.4,0,6.1,2.8,6.1,6.1
			C15.9,13.3,13.1,16,9.7,16z"/>
		<path class="st6" d="M9.7,3.8c-3.4,0-6.1,2.8-6.1,6.1c0,3.4,2.8,6.1,6.1,6.1c3.4,0,6.1-2.8,6.1-6.1C15.9,6.5,13.1,3.8,9.7,3.8z
			 M9.7,13.5C7.6,13.5,6,11.8,6,9.7c0-1.9,1.7-3.7,3.7-3.6c2-0.1,3.7,1.7,3.7,3.7C13.4,11.8,11.8,13.5,9.7,13.5z"/>
	</g>
</g>
</svg>
