<?xml version="1.0" encoding="utf-8"?>
<!-- Generator: Adobe Illustrator 24.0.3, SVG Export Plug-In . SVG Version: 6.00 Build 0)  -->
<svg version="1.1" id="Layer_1" xmlns="http://www.w3.org/2000/svg" xmlns:xlink="http://www.w3.org/1999/xlink" x="0px" y="0px"
	 viewBox="0 0 32 32" style="enable-background:new 0 0 32 32;" xml:space="preserve">
<style type="text/css">
	.st0{fill:url(#SVGID_1_);}
	.st1{fill:url(#SVGID_2_);}
	.st2{fill:url(#SVGID_3_);}
	.st3{fill:url(#SVGID_4_);}
	.st4{fill:url(#SVGID_5_);}
	.st5{fill:url(#SVGID_6_);}
	.st6{fill:url(#SVGID_7_);}
	.st7{fill:url(#SVGID_8_);}
	.st8{fill:url(#SVGID_9_);}
	.st9{fill:url(#SVGID_10_);}
	.st10{fill:url(#SVGID_11_);}
	.st11{fill:url(#SVGID_12_);}
	.st12{fill:url(#SVGID_13_);}
	.st13{fill:url(#SVGID_14_);}
	.st14{fill:url(#SVGID_15_);}
	.st15{fill:url(#SVGID_16_);}
	.st16{fill:url(#SVGID_17_);}
	.st17{fill:url(#SVGID_18_);}
	.st18{fill:url(#SVGID_19_);}
	.st19{fill:url(#SVGID_20_);}
	.st20{fill:url(#SVGID_21_);}
	.st21{fill:url(#SVGID_22_);}
	.st22{fill:url(#SVGID_23_);}
	.st23{fill:url(#SVGID_24_);}
	.st24{fill:url(#SVGID_25_);}
	.st25{fill:url(#SVGID_26_);}
	.st26{fill:url(#SVGID_27_);}
	.st27{fill:url(#SVGID_28_);}
	.st28{fill:url(#SVGID_29_);}
	.st29{fill:url(#SVGID_30_);}
	.st30{fill:url(#SVGID_31_);}
	.st31{fill:url(#SVGID_32_);}
	.st32{fill:url(#SVGID_33_);}
	.st33{fill:url(#SVGID_34_);}
	.st34{fill:url(#SVGID_35_);}
	.st35{fill:url(#SVGID_36_);}
	.st36{fill:url(#SVGID_37_);}
	.st37{fill:#47AD4C;}
	.st38{fill:#566570;}
	.st39{fill:#495660;}
	.st40{fill:#718393;}
	.st41{fill:#6A7B8A;}
	.st42{fill:#97CF47;}
	.st43{fill:#EBF542;}
	.st44{fill:url(#SVGID_38_);}
	.st45{fill:url(#SVGID_39_);}
	.st46{fill:url(#SVGID_40_);}
	.st47{fill:url(#SVGID_41_);}
	.st48{fill:url(#SVGID_42_);}
	.st49{fill:url(#SVGID_43_);}
	.st50{fill:url(#SVGID_44_);}
	.st51{fill:url(#SVGID_45_);}
	.st52{fill:url(#SVGID_46_);}
	.st53{fill:url(#SVGID_47_);}
	.st54{fill:url(#SVGID_48_);}
	.st55{fill:url(#SVGID_49_);}
	.st56{fill:url(#SVGID_50_);}
	.st57{fill:url(#SVGID_51_);}
	.st58{fill:url(#SVGID_52_);}
	.st59{fill:url(#SVGID_53_);}
	.st60{fill:url(#SVGID_54_);}
	.st61{fill:url(#SVGID_55_);}
	.st62{fill:url(#SVGID_56_);}
	.st63{fill:url(#SVGID_57_);}
	.st64{fill:url(#SVGID_58_);}
	.st65{fill:url(#SVGID_59_);}
	.st66{fill:url(#SVGID_60_);}
</style>
<g>
	<g>
		<linearGradient id="SVGID_1_" gradientUnits="userSpaceOnUse" x1="28.0019" y1="6.3748" x2="7.0599" y2="21.1033">
			<stop  offset="0" style="stop-color:#718393"/>
			<stop  offset="1" style="stop-color:#495660"/>
		</linearGradient>
		<path class="st0" d="M12.2,24.3c0,0.3-0.2,0.4-0.4,0.4c-1.9,0.7-3.8,1.3-5.8,2c-0.1,0-0.1,0-0.2,0.1c-1.1,0.4-1.1,0.4-1.8-0.5
			c-1.8-2.1-3-4.5-3.6-7.2c-0.1-0.4,0-0.6,0.5-0.7c2.8-0.5,5.6-1.1,8.5-1.4c0.3,0,0.6,0,0.7,0.4c0.7,2.2,1.3,4.4,2,6.7
			C12.2,24.1,12.2,24.2,12.2,24.3z"/>
		<linearGradient id="SVGID_2_" gradientUnits="userSpaceOnUse" x1="34.7899" y1="16.0265" x2="13.8478" y2="30.7549">
			<stop  offset="0" style="stop-color:#718393"/>
			<stop  offset="1" style="stop-color:#495660"/>
		</linearGradient>
		<path class="st1" d="M16.2,31.8c-0.6,0.1-0.8-0.2-1-0.7c-0.5-1.8-1.1-3.7-1.7-5.5c-0.1-0.4,0-0.6,0.4-0.8c2.1-0.7,4.2-1.5,6.4-2.3
			c0.3-0.1,0.5-0.1,0.7,0.3c1.1,2.1,2,4.3,2.8,6.4c0.1,0.3,0,0.4-0.2,0.6c-2,1.1-4.1,1.7-6.4,1.9C16.9,31.7,16.6,31.8,16.2,31.8z"/>
		<linearGradient id="SVGID_3_" gradientUnits="userSpaceOnUse" x1="35.5184" y1="17.0624" x2="14.5764" y2="31.7909">
			<stop  offset="0" style="stop-color:#718393"/>
			<stop  offset="1" style="stop-color:#495660"/>
		</linearGradient>
		<path class="st2" d="M22.3,22.1c0-0.2,0.1-0.3,0.3-0.4c1.8-0.6,3.5-1.2,5.3-1.9c0.3-0.1,0.4,0,0.5,0.2c0.4,1.1,0.9,2.3,1.3,3.4
			c0.1,0.2,0.1,0.4-0.1,0.6c-1.3,2.1-3,3.8-5,5.1c-0.2,0.1-0.4,0.2-0.5-0.1c-0.7-2.3-1.3-4.5-1.7-6.9C22.3,22.2,22.3,22.2,22.3,22.1
			z"/>
		<linearGradient id="SVGID_4_" gradientUnits="userSpaceOnUse" x1="33.0625" y1="13.5703" x2="12.1204" y2="28.2988">
			<stop  offset="0" style="stop-color:#718393"/>
			<stop  offset="1" style="stop-color:#495660"/>
		</linearGradient>
		<path class="st3" d="M13.9,31.8c-1-0.1-2-0.4-2.9-0.7c-1.7-0.6-3.2-1.4-4.7-2.5c-0.2-0.2-0.6-0.4-0.6-0.7c0-0.3,0.5-0.3,0.8-0.4
			c1.8-0.7,3.6-1.3,5.5-1.9c0.6-0.2,0.6-0.2,0.8,0.4c0.5,1.8,1,3.5,1.6,5.3C14.5,31.6,14.4,31.8,13.9,31.8z"/>
		<linearGradient id="SVGID_5_" gradientUnits="userSpaceOnUse" x1="32.5583" y1="12.8534" x2="11.6162" y2="27.5819">
			<stop  offset="0" style="stop-color:#718393"/>
			<stop  offset="1" style="stop-color:#495660"/>
		</linearGradient>
		<path class="st4" d="M31.8,16c0,0.5,0,0.9,0,1.4c0,0.3-0.2,0.5-0.5,0.7c-0.8,0.3-1.6,0.5-2.4,0.8c-0.3,0.1-0.5,0-0.6-0.3
			c-0.6-1.7-1.2-3.3-1.9-5c-0.2-0.5-0.1-0.7,0.4-0.9c1.3-0.5,2.5-0.9,3.8-1.3c0.4-0.1,0.6,0,0.7,0.4C31.6,13.1,31.9,14.5,31.8,16z"
			/>
		<linearGradient id="SVGID_6_" gradientUnits="userSpaceOnUse" x1="29.274" y1="8.1836" x2="8.332" y2="22.912">
			<stop  offset="0" style="stop-color:#718393"/>
			<stop  offset="1" style="stop-color:#495660"/>
		</linearGradient>
		<path class="st5" d="M12,16.9c0.5,0,1,0.1,1.5,0.2c1,0.3,1.4,1,1.3,2c-0.1,1.6-0.8,2.9-1.5,4.3c0,0.1-0.1,0.2-0.2,0.2
			c-0.1,0-0.1-0.1-0.2-0.2c-0.6-2-1.2-4-1.8-6c-0.1-0.3,0-0.5,0.3-0.4C11.5,16.9,11.7,16.9,12,16.9z"/>
		<linearGradient id="SVGID_7_" gradientUnits="userSpaceOnUse" x1="31.658" y1="11.5733" x2="10.7159" y2="26.3017">
			<stop  offset="0" style="stop-color:#718393"/>
			<stop  offset="1" style="stop-color:#495660"/>
		</linearGradient>
		<path class="st6" d="M13.7,23.9c0.5-0.9,1-1.7,1.6-2.5c0.3-0.5,0.7-0.9,1.2-1.3c0.9-0.8,1.9-0.8,2.8,0.1c0.3,0.3,0.6,0.7,0.9,1.1
			c0.2,0.3,0.2,0.5-0.2,0.6c-0.9,0.3-1.9,0.6-2.8,1c-0.9,0.3-1.9,0.7-2.8,1C14.1,23.9,14,24,13.7,23.9z"/>
		<linearGradient id="SVGID_8_" gradientUnits="userSpaceOnUse" x1="32.8031" y1="13.2016" x2="11.8611" y2="27.93">
			<stop  offset="0" style="stop-color:#718393"/>
			<stop  offset="1" style="stop-color:#495660"/>
		</linearGradient>
		<path class="st7" d="M22,19.9c0-0.1,0-0.1,0-0.2c0.1-1.6,0.8-2.2,2.4-1.8c1,0.2,1.9,0.7,2.8,1.1c0.1,0,0.2,0.1,0.2,0.2
			c0,0.1-0.1,0.1-0.2,0.2c-1.6,0.5-3.1,1.1-4.7,1.6c-0.3,0.1-0.4,0.1-0.4-0.3C22.1,20.5,22,20.2,22,19.9C22,19.9,22,19.9,22,19.9z"
			/>
		<linearGradient id="SVGID_9_" gradientUnits="userSpaceOnUse" x1="32.0387" y1="12.1147" x2="11.0967" y2="26.8431">
			<stop  offset="0" style="stop-color:#718393"/>
			<stop  offset="1" style="stop-color:#495660"/>
		</linearGradient>
		<path class="st8" d="M27.6,18.7c-1.1-0.7-2.3-1.4-3.2-2.4c-0.7-0.9-0.7-1.5,0.2-2.3c0.9-0.8,1-0.8,1.5,0.3c0.5,1.3,1,2.6,1.5,3.9
			c0.1,0.1,0.1,0.3,0.1,0.4C27.7,18.6,27.6,18.7,27.6,18.7z"/>
		<linearGradient id="SVGID_10_" gradientUnits="userSpaceOnUse" x1="35.5159" y1="17.0588" x2="14.5739" y2="31.7873">
			<stop  offset="0" style="stop-color:#718393"/>
			<stop  offset="1" style="stop-color:#495660"/>
		</linearGradient>
		<path class="st9" d="M31.6,19c-0.2,1.4-0.6,2.6-1.3,3.8c0,0.1-0.1,0.2-0.2,0.2c-0.1,0-0.1-0.1-0.2-0.2c-0.4-0.9-0.7-1.9-1.1-2.8
			c-0.1-0.3,0-0.4,0.2-0.5c0.7-0.3,1.4-0.5,2.1-0.8C31.6,18.5,31.6,18.7,31.6,19z"/>
	</g>
	<g>
		<linearGradient id="SVGID_11_" gradientUnits="userSpaceOnUse" x1="18.2173" y1="26.0789" x2="3.1437" y2="12.7312">
			<stop  offset="0" style="stop-color:#EBF542"/>
			<stop  offset="1" style="stop-color:#47AD4C"/>
		</linearGradient>
		<path class="st10" d="M0.3,14.6c0.1-1.2,0.3-2.3,0.7-3.4c0.2-0.6,0.4-1,0.6-1.5C1.6,9.5,1.7,9.3,2,9.3c1.7-0.2,3.4-0.5,5-0.8
			c0.3,0,0.4,0.1,0.5,0.3C8.2,10.9,8.8,13,9.4,15c0.1,0.3,0,0.4-0.3,0.5c-0.4,0.2-0.9,0.4-1.3,0.5c-2.2,0.8-4.5,1.5-6.7,2.1
			c-0.7,0.2-0.7,0.2-0.8-0.5c0-0.1-0.1-0.5-0.1-0.6C0.1,16.1,0.2,15.6,0.3,14.6z"/>
		<linearGradient id="SVGID_12_" gradientUnits="userSpaceOnUse" x1="25.9981" y1="17.292" x2="10.9244" y2="3.9444">
			<stop  offset="0" style="stop-color:#EBF542"/>
			<stop  offset="1" style="stop-color:#47AD4C"/>
		</linearGradient>
		<path class="st11" d="M8.3,7.6C8.2,7.6,8,7.5,7.9,7.3C7.6,6,7.2,4.8,6.8,3.5C6.7,3.3,6.8,3.1,7,3c2-1.4,4.1-2.3,6.5-2.6
			c0.3,0,0.4,0.1,0.5,0.3c0.5,1.8,1,3.6,1.3,5.5c0,0.3,0,0.5-0.3,0.5C12.8,7,10.6,7.3,8.3,7.6z"/>
		<linearGradient id="SVGID_13_" gradientUnits="userSpaceOnUse" x1="29.6468" y1="13.1715" x2="14.5731" y2="-0.1761">
			<stop  offset="0" style="stop-color:#EBF542"/>
			<stop  offset="1" style="stop-color:#47AD4C"/>
		</linearGradient>
		<path class="st12" d="M16,0.2c1.6,0,3.1,0.2,4.6,0.7c0.3,0.1,0.5,0.2,0.6,0.5c0.4,1.2,0.9,2.5,1.4,3.7c0.2,0.4,0.1,0.6-0.4,0.6
			c-1.6,0.2-3.2,0.4-4.8,0.7c-0.4,0.1-0.7,0-0.9-0.5c-0.9-1.7-1.6-3.5-2.4-5.2c-0.1-0.3,0-0.4,0.3-0.5C14.9,0.1,15.5,0.2,16,0.2z"/>
		<linearGradient id="SVGID_14_" gradientUnits="userSpaceOnUse" x1="30.6885" y1="11.9951" x2="15.6149" y2="-1.3526">
			<stop  offset="0" style="stop-color:#EBF542"/>
			<stop  offset="1" style="stop-color:#47AD4C"/>
		</linearGradient>
		<path class="st13" d="M26.2,11.7c-0.4,0.1-0.6-0.1-0.8-0.6c-0.5-1.5-1.1-2.9-1.7-4.4c-0.2-0.4-0.1-0.6,0.4-0.6
			c1.1-0.1,2.2-0.3,3.3-0.5c0.3-0.1,0.5,0,0.7,0.3c1.1,1.4,2.1,3,2.7,4.7c0.1,0.4,0.1,0.5-0.3,0.6C29.2,11.3,27.8,11.5,26.2,11.7z"
			/>
		<linearGradient id="SVGID_15_" gradientUnits="userSpaceOnUse" x1="21.5788" y1="22.2827" x2="6.5052" y2="8.9351">
			<stop  offset="0" style="stop-color:#EBF542"/>
			<stop  offset="1" style="stop-color:#47AD4C"/>
		</linearGradient>
		<path class="st14" d="M12.8,12.7c0,0.4-0.1,0.7-0.4,0.9c-0.5,0.6-1.1,0.9-1.8,1.2c-0.2,0.1-0.3,0-0.4-0.2C9.7,12.9,9.1,11,8.5,9.2
			c0-0.1-0.1-0.2,0-0.2c0.1-0.1,0.2,0,0.3,0c1.2,0.7,2.3,1.4,3.3,2.4C12.5,11.8,12.8,12.2,12.8,12.7z"/>
		<linearGradient id="SVGID_16_" gradientUnits="userSpaceOnUse" x1="21.8998" y1="21.9203" x2="6.8261" y2="8.5726">
			<stop  offset="0" style="stop-color:#EBF542"/>
			<stop  offset="1" style="stop-color:#47AD4C"/>
		</linearGradient>
		<path class="st15" d="M2.5,8.5c-0.4,0-0.3-0.2-0.2-0.4c0.4-0.7,0.8-1.3,1.3-1.9c0.6-0.7,1.2-1.4,1.9-2.1C5.9,3.8,6,3.8,6.1,4.3
			c0.3,1,0.6,2,0.9,3.1c0.1,0.2,0.1,0.4-0.2,0.5C5.4,8,3.9,8.2,2.5,8.5z"/>
		<linearGradient id="SVGID_17_" gradientUnits="userSpaceOnUse" x1="24.5739" y1="18.9004" x2="9.5002" y2="5.5528">
			<stop  offset="0" style="stop-color:#EBF542"/>
			<stop  offset="1" style="stop-color:#47AD4C"/>
		</linearGradient>
		<path class="st16" d="M9,8.2c1-0.1,1.9-0.3,2.8-0.4c1.1-0.2,2.1-0.3,3.2-0.5c0.4-0.1,0.5,0.1,0.5,0.5c0,2-0.8,2.7-2.7,2.1
			c-1.2-0.4-2.4-0.9-3.5-1.4C9.1,8.5,9,8.4,9,8.2z"/>
		<linearGradient id="SVGID_18_" gradientUnits="userSpaceOnUse" x1="31.7307" y1="10.8182" x2="16.657" y2="-2.5295">
			<stop  offset="0" style="stop-color:#EBF542"/>
			<stop  offset="1" style="stop-color:#47AD4C"/>
		</linearGradient>
		<path class="st17" d="M23.5,5.5c-0.1,0-0.2-0.1-0.3-0.3c-0.5-1.2-0.9-2.4-1.4-3.6c0-0.1-0.1-0.2,0-0.3c0.1-0.1,0.3,0,0.4,0.1
			c1,0.5,2,1.1,2.9,1.7C25.8,3.6,26.5,4,27,4.6C27.2,4.8,27.4,5,27,5C25.9,5.2,24.7,5.4,23.5,5.5z"/>
		<linearGradient id="SVGID_19_" gradientUnits="userSpaceOnUse" x1="28.4412" y1="14.533" x2="13.3675" y2="1.1854">
			<stop  offset="0" style="stop-color:#EBF542"/>
			<stop  offset="1" style="stop-color:#47AD4C"/>
		</linearGradient>
		<path class="st18" d="M19.6,9.1c-0.3,0-0.6-0.1-0.8-0.2c-0.6-0.4-1-0.9-1.4-1.5C17.2,7.1,17.3,7,17.6,7c1.5-0.2,3.1-0.4,4.6-0.7
			c0.2,0,0.4,0,0.2,0.3c-0.5,0.8-1,1.6-1.8,2.2C20.4,9,20,9.1,19.6,9.1z"/>
		<linearGradient id="SVGID_20_" gradientUnits="userSpaceOnUse" x1="28.7865" y1="14.1431" x2="13.7128" y2="0.7954">
			<stop  offset="0" style="stop-color:#EBF542"/>
			<stop  offset="1" style="stop-color:#47AD4C"/>
		</linearGradient>
		<path class="st19" d="M24.5,11.7c-0.1,0-0.1,0-0.1,0c-2-0.1-2.8-1.1-2.2-3.1c0.2-0.6,0.4-1.1,0.6-1.7c0-0.1,0.1-0.2,0.2-0.2
			c0.1,0,0.1,0.1,0.1,0.2c0.6,1.5,1.1,2.9,1.7,4.4C25.1,11.8,24.7,11.6,24.5,11.7z"/>
	</g>
</g>
</svg>
