<?xml version="1.0" encoding="utf-8"?>
<!-- Generator: Adobe Illustrator 23.0.6, SVG Export Plug-In . SVG Version: 6.00 Build 0)  -->
<svg version="1.1" id="Layer_1" xmlns="http://www.w3.org/2000/svg" xmlns:xlink="http://www.w3.org/1999/xlink" x="0px" y="0px"
	 viewBox="0 0 142 32.1" style="enable-background:new 0 0 142 32.1;" xml:space="preserve">
<style type="text/css">
	.st0{fill:url(#SVGID_1_);}
	.st1{fill:url(#SVGID_2_);}
	.st2{fill:url(#SVGID_3_);}
	.st3{fill:url(#SVGID_4_);}
	.st4{fill:url(#SVGID_5_);}
	.st5{fill:url(#SVGID_6_);}
	.st6{fill:url(#SVGID_7_);}
	.st7{fill:url(#SVGID_8_);}
	.st8{fill:url(#SVGID_9_);}
	.st9{fill:url(#SVGID_10_);}
	.st10{fill:url(#SVGID_11_);}
	.st11{fill:url(#SVGID_12_);}
	.st12{fill:url(#SVGID_13_);}
	.st13{fill:url(#SVGID_14_);}
	.st14{fill:url(#SVGID_15_);}
	.st15{fill:url(#SVGID_16_);}
	.st16{fill:url(#SVGID_17_);}
	.st17{fill:url(#SVGID_18_);}
	.st18{fill:url(#SVGID_19_);}
	.st19{fill:url(#SVGID_20_);}
	.st20{fill:url(#SVGID_21_);}
	.st21{fill:url(#SVGID_22_);}
	.st22{fill:url(#SVGID_23_);}
	.st23{fill:url(#SVGID_24_);}
	.st24{fill:url(#SVGID_25_);}
	.st25{fill:url(#SVGID_26_);}
	.st26{fill:url(#SVGID_27_);}
	.st27{fill:url(#SVGID_28_);}
	.st28{fill:url(#SVGID_29_);}
	.st29{fill:url(#SVGID_30_);}
	.st30{fill:url(#SVGID_31_);}
	.st31{fill:url(#SVGID_32_);}
	.st32{fill:url(#SVGID_33_);}
</style>
<g>
	<linearGradient id="SVGID_1_" gradientUnits="userSpaceOnUse" x1="50.35" y1="-12.8213" x2="50.35" y2="19.1025">
		<stop  offset="0" style="stop-color:#FFFFFF"/>
		<stop  offset="1" style="stop-color:#E0E0E0"/>
	</linearGradient>
	<path class="st0" d="M49.2,0.7c6.9,0,10.1,4,10.1,9.7C59.2,16,56,20,49.1,20h-7.7V0.7H49.2z M49.2,5.1h-2.6v10.5h2.6
		c3.1,0,4.9-1.6,4.9-5.2C54,6.7,52.2,5.1,49.2,5.1z"/>
	<linearGradient id="SVGID_2_" gradientUnits="userSpaceOnUse" x1="69.05" y1="-12.8213" x2="69.05" y2="19.1025">
		<stop  offset="0" style="stop-color:#FFFFFF"/>
		<stop  offset="1" style="stop-color:#E0E0E0"/>
	</linearGradient>
	<path class="st1" d="M75.9,0.7v4.4h-8.8V8h8v4.4h-8v3.1h9v4.4H62V0.6L75.9,0.7z"/>
	<linearGradient id="SVGID_3_" gradientUnits="userSpaceOnUse" x1="85.9" y1="-12.8213" x2="85.9" y2="19.1025">
		<stop  offset="0" style="stop-color:#FFFFFF"/>
		<stop  offset="1" style="stop-color:#E0E0E0"/>
	</linearGradient>
	<path class="st2" d="M85.6,0.4C88,0.4,90.4,1,92.1,2v4.7c-1.7-1.2-3.8-1.9-6.1-1.8c-1.9,0-2.5,0.5-2.5,1.2c0,2.5,10,1.8,10,8.6
		c0,4.6-3.5,5.9-7.7,5.9c-2.8,0-5.4-0.6-7.4-1.8V14c2.3,1.6,4.8,2.2,7,2.2c2,0,2.9-0.3,2.9-1.3c0-2.8-10-1.9-10-8.8
		C78.3,2.2,81.6,0.3,85.6,0.4z"/>
	<linearGradient id="SVGID_4_" gradientUnits="userSpaceOnUse" x1="98.65" y1="-12.8213" x2="98.65" y2="19.1025">
		<stop  offset="0" style="stop-color:#FFFFFF"/>
		<stop  offset="1" style="stop-color:#E0E0E0"/>
	</linearGradient>
	<path class="st3" d="M101.2,0.8v19.3h-5.1V0.8H101.2z"/>
	<linearGradient id="SVGID_5_" gradientUnits="userSpaceOnUse" x1="112.35" y1="-12.8213" x2="112.35" y2="19.1025">
		<stop  offset="0" style="stop-color:#FFFFFF"/>
		<stop  offset="1" style="stop-color:#E0E0E0"/>
	</linearGradient>
	<path class="st4" d="M114.5,0.4c2.1,0,4.2,0.5,6,1.2v4.8c-1.4-1-3.4-1.6-5.3-1.6c-3.1,0-6.1,1.6-6.1,5.6c0,4.8,3.5,5.7,5.7,5.7
		c0.6,0,1-0.1,1.3-0.1V9.5h4.8v9.7c-2,0.8-4.2,1.3-6.4,1.3c-5.5,0-10.7-3.1-10.7-10.1C103.9,3.3,109.2,0.4,114.5,0.4z"/>
	<linearGradient id="SVGID_6_" gradientUnits="userSpaceOnUse" x1="132.65" y1="-12.8213" x2="132.65" y2="19.1025">
		<stop  offset="0" style="stop-color:#FFFFFF"/>
		<stop  offset="1" style="stop-color:#E0E0E0"/>
	</linearGradient>
	<path class="st5" d="M124,20.1V0.8h4.8l7.5,11.1c-0.1-0.9-0.1-2.1-0.1-3.2V0.8h5.1v19.3h-4.8L129,9c0.1,0.9,0.1,2.1,0.1,3.2v7.9
		H124z"/>
</g>
<g>
	
		<linearGradient id="SVGID_7_" gradientUnits="userSpaceOnUse" x1="-16.5142" y1="782.2874" x2="-16.5142" y2="803.4746" gradientTransform="matrix(1 2.444680e-03 -2.444680e-03 1 21.553 -782.7462)">
		<stop  offset="0" style="stop-color:#54C2ED"/>
		<stop  offset="1" style="stop-color:#00405F"/>
	</linearGradient>
	<path class="st6" d="M5.5,2.8c0-0.1,0-0.2,0-0.3C5.6,1.2,4.4,0,3.1,0S0.6,1.2,0.6,2.5c0,0.1,0,0.1,0,0.2v15.1c0,0.1,0,0.1,0,0.2
		c0,1.4,1.1,2.5,2.5,2.5s2.5-1.1,2.5-2.5c0-0.1,0-0.2,0-0.3L5.5,2.8z"/>
	
		<linearGradient id="SVGID_8_" gradientUnits="userSpaceOnUse" x1="-5.5141" y1="784.5065" x2="-5.5141" y2="802.7379" gradientTransform="matrix(1 2.444680e-03 -2.444680e-03 1 21.553 -782.7462)">
		<stop  offset="0" style="stop-color:#5B56A4"/>
		<stop  offset="1" style="stop-color:#354986"/>
	</linearGradient>
	<path class="st7" d="M16.6,2.9c0-0.1,0-0.2,0-0.3c0-1.4-1.1-2.5-2.5-2.5s-2.5,1.1-2.5,2.5c0,0.1,0,0.1,0,0.2v15.1
		c0,0.1,0,0.1,0,0.2c0,1.4,1.1,2.5,2.5,2.5s2.5-1.1,2.5-2.5c0-0.1,0-0.2,0-0.3V2.9z"/>
	
		<linearGradient id="SVGID_9_" gradientUnits="userSpaceOnUse" x1="10.7618" y1="785.3433" x2="-7.7944" y2="785.3433" gradientTransform="matrix(1 2.444680e-03 -2.444680e-03 1 21.553 -782.7462)">
		<stop  offset="0" style="stop-color:#682710"/>
		<stop  offset="1" style="stop-color:#DD1F26"/>
	</linearGradient>
	<path class="st8" d="M27.1,5.1c0.1,0,0.2,0,0.3,0c1.4,0,2.5-1.1,2.5-2.5s-1.1-2.5-2.5-2.5c-0.1,0-0.1,0-0.2,0H14.4
		c-0.1,0-0.1,0-0.2,0c-1.4,0-2.5,1.1-2.5,2.5s1.1,2.5,2.5,2.5c0.1,0,0.2,0,0.3,0H27.1z"/>
	
		<linearGradient id="SVGID_10_" gradientUnits="userSpaceOnUse" x1="1.5886" y1="792.8557" x2="8.1402" y2="784.6133" gradientTransform="matrix(1 2.444680e-03 -2.444680e-03 1 21.553 -782.7462)">
		<stop  offset="0" style="stop-color:#DD7DB2"/>
		<stop  offset="1" style="stop-color:#B51D8B"/>
	</linearGradient>
	<path class="st9" d="M29,4.5c0.1-0.1,0.1-0.1,0.2-0.2C30.1,3.2,30,1.6,29,0.8c-1.1-0.9-2.6-0.8-3.5,0.3c0,0.1-0.1,0.1-0.1,0.2
		l-6.2,7.4c-0.2-0.1-0.2,0-0.3,0.1c-0.9,1.1-0.8,2.6,0.3,3.5c1.1,0.9,2.6,0.8,3.5-0.3c0.1-0.1,0.1-0.2,0.2-0.2L29,4.5z"/>
	
		<linearGradient id="SVGID_11_" gradientUnits="userSpaceOnUse" x1="-0.4906" y1="792.1627" x2="8.9142" y2="801.8845" gradientTransform="matrix(1 2.444680e-03 -2.444680e-03 1 21.553 -782.7462)">
		<stop  offset="0" style="stop-color:#FBE68C"/>
		<stop  offset="1" style="stop-color:#C0990B"/>
	</linearGradient>
	<path class="st10" d="M25.1,19.6c0.1,0.1,0.1,0.2,0.2,0.2c0.9,1,2.5,1.1,3.5,0.2s1.1-2.5,0.2-3.5c0-0.1-0.1-0.1-0.2-0.2L22.5,9
		c0-0.1-0.1-0.1-0.1-0.2c-0.9-1-2.5-1.1-3.5-0.2s-1.1,2.5-0.2,3.5c0.1,0.1,0.1,0.1,0.2,0.2L25.1,19.6z"/>
</g>
<g>
	<linearGradient id="SVGID_12_" gradientUnits="userSpaceOnUse" x1="2.9" y1="25.3737" x2="2.9" y2="30.5704">
		<stop  offset="0" style="stop-color:#FFFFFF"/>
		<stop  offset="1" style="stop-color:#E0E0E0"/>
	</linearGradient>
	<path class="st11" d="M3.5,31.1c-1.1,0-2.3-0.7-2.3-2.2c0-1.6,1.2-2.3,2.3-2.3c0.5,0,1,0.1,1.3,0.3l0.4,0.2v-0.7l-0.1-0.1
		c-0.4-0.3-1-0.4-1.6-0.4c-1.5,0-2.9,1-2.9,3c0,1.9,1.5,2.9,2.9,2.9c0.6,0,1.2-0.1,1.6-0.4l0.1-0.1v-0.7l-0.4,0.2
		C4.5,31,4,31.1,3.5,31.1z"/>
	<linearGradient id="SVGID_13_" gradientUnits="userSpaceOnUse" x1="9.45" y1="25.3737" x2="9.45" y2="30.5704">
		<stop  offset="0" style="stop-color:#FFFFFF"/>
		<stop  offset="1" style="stop-color:#E0E0E0"/>
	</linearGradient>
	<path class="st12" d="M9.5,25.9c-1.9,0-2.9,1.5-3,2.9c0,1.5,1,2.9,2.9,2.9s2.9-1.5,3-2.9C12.4,27.4,11.4,25.9,9.5,25.9z M9.5,31.1
		c-1.5,0-2.3-1.2-2.3-2.3c0-1.1,0.8-2.3,2.3-2.3s2.3,1.2,2.3,2.3C11.8,30,11,31.1,9.5,31.1z"/>
	<linearGradient id="SVGID_14_" gradientUnits="userSpaceOnUse" x1="17.2" y1="25.3737" x2="17.2" y2="30.5704">
		<stop  offset="0" style="stop-color:#FFFFFF"/>
		<stop  offset="1" style="stop-color:#E0E0E0"/>
	</linearGradient>
	<polygon class="st13" points="19.7,26 19.5,26 17.2,29.4 14.9,26 14.7,26 14.6,26 14.6,26 14.4,26 14.4,31.7 15.1,31.7 15.1,27.4 
		17,30.3 17.4,30.3 19.4,27.4 19.4,31.7 20,31.7 20,26 19.8,26 	"/>
	<linearGradient id="SVGID_15_" gradientUnits="userSpaceOnUse" x1="25.2" y1="25.3737" x2="25.2" y2="30.5704">
		<stop  offset="0" style="stop-color:#FFFFFF"/>
		<stop  offset="1" style="stop-color:#E0E0E0"/>
	</linearGradient>
	<polygon class="st14" points="27.7,26 27.5,26 25.2,29.4 22.9,26 22.7,26 22.6,26 22.4,26 22.4,31.8 23.1,31.8 23.1,27.4 25,30.3 
		25.4,30.3 27.4,27.4 27.3,31.8 28,31.8 28,26 27.8,26 	"/>
	<linearGradient id="SVGID_16_" gradientUnits="userSpaceOnUse" x1="32.5" y1="25.3737" x2="32.5" y2="30.5704">
		<stop  offset="0" style="stop-color:#FFFFFF"/>
		<stop  offset="1" style="stop-color:#E0E0E0"/>
	</linearGradient>
	<path class="st15" d="M34.3,29.7c0,1-0.5,1.5-1.7,1.5c-1.1,0-1.7-0.5-1.7-1.5V26h-0.7v3.7c0,1.4,0.8,2.1,2.3,2.1s2.3-0.7,2.3-2.1
		V26h-0.7L34.3,29.7z"/>
	<linearGradient id="SVGID_17_" gradientUnits="userSpaceOnUse" x1="39.6" y1="25.3737" x2="39.6" y2="30.5704">
		<stop  offset="0" style="stop-color:#FFFFFF"/>
		<stop  offset="1" style="stop-color:#E0E0E0"/>
	</linearGradient>
	<polygon class="st16" points="41.3,30.5 37.8,26.1 37.6,26.1 37.5,26.1 37.3,26.1 37.3,31.8 37.9,31.8 37.9,27.3 41.4,31.8 
		41.6,31.8 41.7,31.8 41.9,31.8 41.9,26.1 41.3,26.1 	"/>
	<linearGradient id="SVGID_18_" gradientUnits="userSpaceOnUse" x1="44.6622" y1="25.3737" x2="44.6622" y2="30.5704">
		<stop  offset="0" style="stop-color:#FFFFFF"/>
		<stop  offset="1" style="stop-color:#E0E0E0"/>
	</linearGradient>
	<polygon class="st17" points="44.3,31.7 44.3,26 45,26.1 45,31.8 	"/>
	<linearGradient id="SVGID_19_" gradientUnits="userSpaceOnUse" x1="49.3" y1="25.3737" x2="49.3" y2="30.5704">
		<stop  offset="0" style="stop-color:#FFFFFF"/>
		<stop  offset="1" style="stop-color:#E0E0E0"/>
	</linearGradient>
	<path class="st18" d="M49.9,31.2c-1.1,0-2.3-0.7-2.3-2.2c0-1.6,1.2-2.3,2.3-2.3c0.5,0,1,0.1,1.3,0.3l0.4,0.2v-0.7l-0.1-0.1
		c-0.4-0.3-1-0.4-1.6-0.4c-1.5,0-2.9,1-2.9,3c0,1.9,1.5,2.9,2.9,2.9c0.6,0,1.2-0.1,1.6-0.4l0.1-0.1v-0.7l-0.4,0.2
		C50.9,31.1,50.4,31.2,49.9,31.2z"/>
	<linearGradient id="SVGID_20_" gradientUnits="userSpaceOnUse" x1="55.5" y1="25.3737" x2="55.5" y2="30.5704">
		<stop  offset="0" style="stop-color:#FFFFFF"/>
		<stop  offset="1" style="stop-color:#E0E0E0"/>
	</linearGradient>
	<path class="st19" d="M55.7,26.1h-0.2h-0.2l-2.6,5.7h0.7l0.7-1.6h2.8l0.7,1.6h0.7L55.7,26.1L55.7,26.1z M54.5,29.6l1.1-2.5l1.1,2.5
		H54.5z"/>
	<linearGradient id="SVGID_21_" gradientUnits="userSpaceOnUse" x1="61.15" y1="25.3737" x2="61.15" y2="30.5704">
		<stop  offset="0" style="stop-color:#FFFFFF"/>
		<stop  offset="1" style="stop-color:#E0E0E0"/>
	</linearGradient>
	<polygon class="st20" points="58.8,26.8 60.8,26.8 60.8,31.8 61.4,31.8 61.5,26.8 63.5,26.8 63.5,26.1 58.8,26.1 	"/>
	<linearGradient id="SVGID_22_" gradientUnits="userSpaceOnUse" x1="65.5597" y1="25.3737" x2="65.5597" y2="30.5704">
		<stop  offset="0" style="stop-color:#FFFFFF"/>
		<stop  offset="1" style="stop-color:#E0E0E0"/>
	</linearGradient>
	<polygon class="st21" points="65.2,31.9 65.2,26.2 65.9,26.2 65.9,31.9 	"/>
	<linearGradient id="SVGID_23_" gradientUnits="userSpaceOnUse" x1="70.75" y1="25.3737" x2="70.75" y2="30.5704">
		<stop  offset="0" style="stop-color:#FFFFFF"/>
		<stop  offset="1" style="stop-color:#E0E0E0"/>
	</linearGradient>
	<path class="st22" d="M70.8,26.1c-1.9,0-2.9,1.5-3,2.9c0,1.5,1,2.9,2.9,2.9s2.9-1.5,3-2.9C73.7,27.6,72.7,26.1,70.8,26.1z
		 M70.7,31.3c-1.5,0-2.3-1.2-2.3-2.3s0.8-2.3,2.3-2.3S73,27.9,73,29S72.2,31.3,70.7,31.3z"/>
	<linearGradient id="SVGID_24_" gradientUnits="userSpaceOnUse" x1="78" y1="25.3737" x2="78" y2="30.5704">
		<stop  offset="0" style="stop-color:#FFFFFF"/>
		<stop  offset="1" style="stop-color:#E0E0E0"/>
	</linearGradient>
	<polygon class="st23" points="79.6,30.6 76.2,26.2 76,26.2 75.9,26.2 75.7,26.2 75.7,31.9 76.3,31.9 76.3,27.4 79.8,31.9 80,31.9 
		80.1,31.9 80.3,31.9 80.3,26.2 79.7,26.2 	"/>
	<linearGradient id="SVGID_25_" gradientUnits="userSpaceOnUse" x1="87.7" y1="25.3737" x2="87.7" y2="30.5704">
		<stop  offset="0" style="stop-color:#FFFFFF"/>
		<stop  offset="1" style="stop-color:#E0E0E0"/>
	</linearGradient>
	<path class="st24" d="M87.9,26.2h-0.2h-0.2l-2.6,5.7h0.7l0.7-1.6h2.8l0.7,1.6h0.7L87.9,26.2L87.9,26.2z M86.7,29.6l1.1-2.5l1.1,2.5
		H86.7z"/>
	<linearGradient id="SVGID_26_" gradientUnits="userSpaceOnUse" x1="94.6" y1="25.3737" x2="94.6" y2="30.5704">
		<stop  offset="0" style="stop-color:#FFFFFF"/>
		<stop  offset="1" style="stop-color:#E0E0E0"/>
	</linearGradient>
	<polygon class="st25" points="96.2,30.7 92.8,26.2 92.6,26.2 92.5,26.2 92.3,26.2 92.3,31.9 92.9,31.9 92.9,27.5 96.4,31.9 
		96.6,31.9 96.7,31.9 96.9,31.9 96.9,26.2 96.3,26.2 	"/>
	<linearGradient id="SVGID_27_" gradientUnits="userSpaceOnUse" x1="101.65" y1="25.3737" x2="101.65" y2="30.5704">
		<stop  offset="0" style="stop-color:#FFFFFF"/>
		<stop  offset="1" style="stop-color:#E0E0E0"/>
	</linearGradient>
	<path class="st26" d="M101,26.2h-1.7v5.7h1.7c1.9,0,3-1.1,3-2.9C104,27.3,102.9,26.2,101,26.2z M101,31.3h-1.1v-4.4h1.1
		c1.5,0,2.4,0.8,2.4,2.2S102.5,31.3,101,31.3z"/>
	<linearGradient id="SVGID_28_" gradientUnits="userSpaceOnUse" x1="111.65" y1="25.3737" x2="111.65" y2="30.5704">
		<stop  offset="0" style="stop-color:#FFFFFF"/>
		<stop  offset="1" style="stop-color:#E0E0E0"/>
	</linearGradient>
	<path class="st27" d="M111,26.2h-1.7v5.7h1.7c1.9,0,3-1.1,3-2.9S112.9,26.3,111,26.2z M111,31.3h-1.1v-4.4h1.1
		c1.5,0,2.4,0.8,2.4,2.2C113.4,30.5,112.5,31.3,111,31.3z"/>
	<linearGradient id="SVGID_29_" gradientUnits="userSpaceOnUse" x1="118" y1="25.3737" x2="118" y2="30.5704">
		<stop  offset="0" style="stop-color:#FFFFFF"/>
		<stop  offset="1" style="stop-color:#E0E0E0"/>
	</linearGradient>
	<polygon class="st28" points="116.7,29.4 119.7,29.4 119.7,28.8 116.7,28.8 116.7,26.9 119.9,26.9 119.9,26.3 116.1,26.3 116,32 
		120,32 120,31.3 116.7,31.3 	"/>
	<linearGradient id="SVGID_30_" gradientUnits="userSpaceOnUse" x1="123.6" y1="25.3737" x2="123.6" y2="30.5704">
		<stop  offset="0" style="stop-color:#FFFFFF"/>
		<stop  offset="1" style="stop-color:#E0E0E0"/>
	</linearGradient>
	<path class="st29" d="M123.7,28.8c-0.9-0.3-1.4-0.5-1.4-1.1c0-0.8,1-0.8,1.2-0.8c0.4,0,1,0.1,1.4,0.3l0.4,0.2v-0.7l-0.1-0.1
		c-0.4-0.2-1-0.4-1.6-0.4c-0.9,0-1.9,0.5-1.9,1.5c0,1.1,1,1.4,1.8,1.7c0.9,0.3,1.5,0.5,1.5,1.2s-0.7,0.8-1.3,0.8
		c-0.6,0-1.2-0.2-1.7-0.4l-0.4-0.2v0.7l0.1,0.1c0.5,0.3,1.2,0.5,1.9,0.5c0.7,0,1.2-0.2,1.6-0.5c0.3-0.3,0.4-0.6,0.4-1
		C125.6,29.4,124.6,29.1,123.7,28.8z"/>
	<linearGradient id="SVGID_31_" gradientUnits="userSpaceOnUse" x1="127.8553" y1="25.3737" x2="127.8553" y2="30.5704">
		<stop  offset="0" style="stop-color:#FFFFFF"/>
		<stop  offset="1" style="stop-color:#E0E0E0"/>
	</linearGradient>
	<polygon class="st30" points="127.5,32 127.5,26.3 128.2,26.3 128.2,32 	"/>
	<linearGradient id="SVGID_32_" gradientUnits="userSpaceOnUse" x1="132.6" y1="25.3737" x2="132.6" y2="30.5704">
		<stop  offset="0" style="stop-color:#FFFFFF"/>
		<stop  offset="1" style="stop-color:#E0E0E0"/>
	</linearGradient>
	<path class="st31" d="M134.4,31.2c-1.3,0.5-3.6,0.2-3.6-2.1c0-1.7,1.2-2.3,2.4-2.3c0.5,0,1,0.1,1.4,0.3l0.3,0.2v-0.7l-0.1-0.1
		c-0.5-0.2-1-0.4-1.6-0.4c-1.5,0-3,0.9-3,2.9c0,2.2,1.6,2.9,3,2.9c0.6,0,1.2-0.1,1.7-0.4l0.1-0.1v-2.8h-0.7L134.4,31.2z"/>
	<linearGradient id="SVGID_33_" gradientUnits="userSpaceOnUse" x1="139.45" y1="25.3737" x2="139.45" y2="30.5704">
		<stop  offset="0" style="stop-color:#FFFFFF"/>
		<stop  offset="1" style="stop-color:#E0E0E0"/>
	</linearGradient>
	<polygon class="st32" points="141.1,26.3 141.1,30.8 137.7,26.3 137.4,26.3 137.3,26.3 137.1,26.3 137.1,32 137.8,32 137.8,27.6 
		141.3,32 141.5,32 141.6,32 141.8,32 141.8,26.3 	"/>
</g>
</svg>
