<?xml version="1.0" encoding="utf-8"?>
<!-- Generator: Adobe Illustrator 25.3.1, SVG Export Plug-In . SVG Version: 6.00 Build 0)  -->
<svg version="1.1" id="Layer_1" xmlns="http://www.w3.org/2000/svg" xmlns:xlink="http://www.w3.org/1999/xlink" x="0px" y="0px"
	 viewBox="0 0 123 35" style="enable-background:new 0 0 123 35;" xml:space="preserve">
<style type="text/css">
	.st0{fill:url(#SVGID_1_);}
	.st1{opacity:0.55;fill:#6B6B6B;}
	.st2{opacity:0.78;fill:#6B6B6B;}
	.st3{opacity:0.35;fill:#6B6B6B;}
	.st4{fill:url(#SVGID_2_);}
	.st5{fill:url(#SVGID_3_);}
	.st6{fill:#B03331;}
	.st7{fill:#C5623A;}
	.st8{fill:#E5A547;}
	.st9{fill:#175391;}
	.st10{fill:#457A74;}
	.st11{fill:#85B143;}
	.st12{fill:#333333;}
	.st13{fill:#F0F0F0;}
	.st14{fill:#243C51;}
	.st15{fill:#1664A0;}
	.st16{fill:#297E83;}
	.st17{fill:#51B04C;}
	.st18{fill:#9CA533;}
	.st19{fill:#CA9C27;}
	.st20{fill:#F4941D;}
	.st21{fill:#C0152E;}
	.st22{fill:url(#SVGID_6_);}
	.st23{fill:#FFFFFF;}
	.st24{fill:none;stroke:#FFFFFF;stroke-miterlimit:10;}
	.st25{fill:url(#SVGID_7_);}
	.st26{fill:#515457;}
	.st27{opacity:0.3;fill:#C0152E;}
	.st28{opacity:0.4;fill:#7C7C7C;}
	.st29{fill:none;stroke:#E7A747;stroke-width:2;stroke-miterlimit:10;}
	.st30{fill:#666969;}
	.st31{fill:#AB1E2E;}
	.st32{fill:#3EAB49;}
	.st33{fill:#004E7C;}
	.st34{fill:#EA8823;}
	.st35{fill:#6D6E70;}
</style>
<g>
	<g>
		<g>
			<g>
				<path class="st30" d="M18.4,21.5v1.6c0,0.8,0.2,1.6,0.9,1.6c0.8,0,0.9-0.8,0.9-1.5v-0.1h1.9v0c0,1.1-0.2,3.4-2.8,3.4
					c-2.5,0-2.9-1.7-2.9-3.9v-3.5c0-1.5,0.4-3.7,2.9-3.7c2.1,0,2.8,1.6,2.8,3.7c0,0.6,0,1.8,0,2.4H18.4z M20.2,19.9v-1.1
					c0-1-0.2-1.5-0.9-1.5c-0.6,0-0.9,0.5-0.9,1.5v1.1H20.2z"/>
			</g>
			<g>
				<path class="st30" d="M23.1,26.4V11.8h2v14.5H23.1z"/>
			</g>
			<g>
				<path class="st30" d="M28,21.5v1.6c0,0.8,0.2,1.6,0.9,1.6c0.8,0,0.9-0.8,0.9-1.5v-0.1h1.9v0c0,1.1-0.2,3.4-2.8,3.4
					c-2.5,0-2.9-1.7-2.9-3.9v-3.5c0-1.5,0.4-3.7,2.9-3.7c2.1,0,2.8,1.6,2.8,3.7c0,0.6,0,1.8,0,2.4H28z M29.8,19.9v-1.1
					c0-1-0.2-1.5-0.9-1.5c-0.6,0-0.9,0.5-0.9,1.5v1.1H29.8z"/>
			</g>
			<g>
				<path class="st30" d="M32.7,18.7c0-2.1,0-2.6,0-3.1h1.9c0.1,0.3,0.1,0.6,0.1,1c0.3-0.7,0.9-1.1,1.7-1.1c0.8,0,1.3,0.4,1.6,1.2
					c0.4-0.6,0.9-1.2,1.9-1.2c1.1,0,2,0.6,2,2.7v8.3h-2v-7.9c0-0.8-0.2-1.2-0.7-1.2c-0.7,0-0.9,0.6-0.9,1.7v7.4h-2v-7.8
					c0-1-0.3-1.2-0.7-1.2c-0.7,0-0.9,0.6-0.9,1.6v7.4h-2V18.7z"/>
			</g>
			<g>
				<path class="st30" d="M44.7,21.5v1.6c0,0.8,0.2,1.6,0.9,1.6c0.8,0,0.9-0.8,0.9-1.5v-0.1h1.9v0c0,1.1-0.2,3.4-2.8,3.4
					c-2.5,0-2.9-1.7-2.9-3.9v-3.5c0-1.5,0.4-3.7,2.9-3.7c2.1,0,2.8,1.6,2.8,3.7c0,0.6,0,1.8,0,2.4H44.7z M46.6,19.9v-1.1
					c0-1-0.2-1.5-0.9-1.5c-0.6,0-0.9,0.5-0.9,1.5v1.1H46.6z"/>
			</g>
			<g>
				<path class="st30" d="M49.4,18.9c0-2.2,0-2.8,0-3.3h1.9c0,0.2,0.1,0.7,0.1,1c0.3-0.6,0.8-1.1,1.8-1.1c1.2,0,2,0.8,2,2.8v8.1h-2
					v-7.7c0-1-0.3-1.3-0.9-1.3c-0.7,0-1,0.4-1,1.9v7.2h-2V18.9z"/>
			</g>
			<g>
				<path class="st30" d="M55.6,15.6h1.1V13h2v2.6h1.2v1.9h-1.2v6.4c0,0.5,0.1,0.9,0.7,0.9c0.2,0,0.4,0,0.5-0.1v1.6
					c-0.3,0.2-0.8,0.2-1.2,0.2c-1.2,0-2-0.4-2-2.3v-6.8h-1.1V15.6z"/>
			</g>
			<g>
				<path class="st30" d="M60.6,15.6h2v10.8h-2V15.6z M60.6,11.8h2v2.3h-2V11.8z"/>
			</g>
			<g>
				<path class="st30" d="M68.9,24.2c0,0.7,0,1.8,0,2.2h-1.8c0-0.2-0.1-0.6-0.1-0.8c-0.3,0.7-0.9,1-1.6,1c-1.5,0-2.1-1.5-2.1-3.1
					v-0.2c0-2.7,1.6-3.4,3.4-3.4c0.1,0,0.1,0,0.2,0v-1.4c0-0.8-0.1-1.3-0.7-1.3c-0.6,0-0.7,0.5-0.7,1.2v0.2h-1.9v-0.1
					c0-1.6,0.6-2.9,2.7-2.9c1.9,0,2.6,1.1,2.6,2.9V24.2z M67,21.5c-0.1,0-0.3,0-0.3,0c-0.9,0-1.5,0.4-1.5,1.7v0.2
					c0,0.8,0.3,1.3,0.9,1.3c0.7,0,1-0.5,1-2V21.5z"/>
			</g>
		</g>
		<g id="XMLID_46_">
			<g id="XMLID_50_">
				<g>
					<path class="st31" d="M7.8,10.4l0.1,0.1c2.1,1.2,4.6,1.9,7,2l0.3,0l-3.7,3.7c-0.3,0.4-0.8,0.5-1.3,0.5c-0.5,0-1-0.2-1.3-0.5
						l-1.7-1.8l0-0.1c0-1.3,0.2-2.6,0.5-3.9L7.8,10.4"/>
				</g>
			</g>
			<g id="XMLID_49_">
				<g>
					<path class="st32" d="M4.9,5.9L4.9,5.9c1.3,0,2.6,0.2,3.8,0.6l0.1,0L8.8,6.6c-1.2,2.2-1.9,4.7-2,7.2l0,0.3l-3.7-3.7
						c-0.7-0.7-0.7-1.9,0-2.6L4.9,5.9"/>
				</g>
			</g>
			<g id="XMLID_48_">
				<g>
					<path class="st33" d="M10.2,1.2c0.5,0,0.9,0.2,1.3,0.5l1.7,1.8l0,0.1c0,1.3-0.2,2.6-0.5,3.9l0,0.2l-0.1-0.1
						c-2.1-1.2-4.6-1.9-7-2.1l-0.3,0l3.6-3.7C9.3,1.4,9.7,1.2,10.2,1.2"/>
				</g>
			</g>
			<g id="XMLID_47_">
				<g>
					<path class="st34" d="M13.6,4l3.7,3.7c0.7,0.7,0.7,1.9,0,2.6l-1.7,1.8l-0.1,0c-1.3,0-2.5-0.2-3.8-0.5l-0.1,0l0.1-0.1
						c1.2-2.2,1.8-4.7,2-7.2L13.6,4"/>
				</g>
			</g>
		</g>
	</g>
	<g>
		<path class="st35" d="M28,30.6c0-0.3,0-0.7,0-1h0.8c0,0.1,0,0.3,0,0.5c0.2-0.3,0.5-0.6,1-0.6c0.5,0,0.8,0.3,0.9,0.6
			c0.2-0.3,0.5-0.6,1.1-0.6c0.6,0,1.1,0.4,1.1,1.4v2.5h-0.8v-2.4c0-0.4-0.1-0.8-0.6-0.8c-0.5,0-0.7,0.3-0.7,1v2.2h-0.8v-2.4
			c0-0.4-0.1-0.8-0.6-0.8c-0.5,0-0.7,0.3-0.7,1v2.1H28V30.6z"/>
		<path class="st35" d="M37,32.5c0,0.4,0,0.8,0,0.9h-0.8c0-0.1,0-0.3-0.1-0.4c-0.1,0.2-0.4,0.5-1,0.5c-0.9,0-1.2-0.6-1.2-1.2
			c0-0.9,0.6-1.3,1.7-1.3c0.2,0,0.4,0,0.5,0v-0.3c0-0.3-0.1-0.6-0.6-0.6c-0.5,0-0.6,0.2-0.6,0.5h-0.8c0.1-0.6,0.4-1.2,1.5-1.2
			c0.9,0,1.4,0.4,1.4,1.3V32.5z M36.2,31.7c-0.1,0-0.3,0-0.5,0c-0.6,0-0.9,0.2-0.9,0.6c0,0.3,0.2,0.6,0.6,0.6c0.7,0,0.8-0.5,0.8-1.1
			V31.7z"/>
		<path class="st35" d="M37.6,29.6h0.6v-1.1h0.9v1.1h0.7v0.7h-0.7v2c0,0.3,0.1,0.5,0.4,0.5c0.1,0,0.2,0,0.3,0v0.6
			c-0.2,0.1-0.4,0.1-0.6,0.1c-0.7,0-0.9-0.4-0.9-1v-2.1h-0.6V29.6z"/>
		<path class="st35" d="M41.2,31.7c0,0.6,0.3,1.1,0.8,1.1c0.5,0,0.6-0.2,0.7-0.5h0.9c-0.1,0.5-0.5,1.2-1.6,1.2c-1.2,0-1.7-1-1.7-1.9
			c0-1.2,0.6-2,1.7-2c1.2,0,1.6,1,1.6,1.9c0,0.1,0,0.2,0,0.3H41.2z M42.7,31.2c0-0.5-0.2-0.9-0.7-0.9c-0.5,0-0.7,0.4-0.8,0.9H42.7z"
			/>
		<path class="st35" d="M44.5,30.7c0-0.4,0-0.8,0-1h0.8c0,0.1,0,0.4,0,0.7c0.2-0.5,0.6-0.8,1.2-0.8v0.9c-0.7,0-1.2,0.3-1.2,1.3v1.7
			h-0.9V30.7z"/>
		<path class="st35" d="M47.2,28h0.9v0.9h-0.9V28z M47.2,29.6h0.9v3.8h-0.9V29.6z"/>
		<path class="st35" d="M52,32.5c0,0.4,0,0.8,0,0.9h-0.8c0-0.1,0-0.3-0.1-0.4c-0.1,0.2-0.4,0.5-1,0.5c-0.9,0-1.2-0.6-1.2-1.2
			c0-0.9,0.6-1.3,1.7-1.3c0.2,0,0.4,0,0.5,0v-0.3c0-0.3-0.1-0.6-0.6-0.6c-0.5,0-0.6,0.2-0.6,0.5h-0.8c0.1-0.6,0.4-1.2,1.5-1.2
			c0.9,0,1.4,0.4,1.4,1.3V32.5z M51.2,31.7c-0.1,0-0.3,0-0.5,0c-0.6,0-0.9,0.2-0.9,0.6c0,0.3,0.2,0.6,0.6,0.6c0.7,0,0.8-0.5,0.8-1.1
			V31.7z"/>
		<path class="st35" d="M53.1,33.5V28H54v5.4H53.1z"/>
		<path class="st35" d="M55.7,31.7c0,0.6,0.3,1.1,0.8,1.1c0.5,0,0.6-0.2,0.7-0.5h0.9c-0.1,0.5-0.5,1.2-1.6,1.2c-1.2,0-1.7-1-1.7-1.9
			c0-1.2,0.6-2,1.7-2c1.2,0,1.6,1,1.6,1.9c0,0.1,0,0.2,0,0.3H55.7z M57.3,31.2c0-0.5-0.2-0.9-0.7-0.9c-0.5,0-0.7,0.4-0.8,0.9H57.3z"
			/>
		<path class="st35" d="M59.6,32.3c0.1,0.3,0.3,0.5,0.7,0.5c0.4,0,0.6-0.2,0.6-0.4c0-0.3-0.2-0.4-0.7-0.5c-1.1-0.3-1.3-0.7-1.3-1.2
			c0-0.6,0.4-1.1,1.4-1.1c1,0,1.4,0.6,1.4,1.1h-0.8c0-0.2-0.2-0.5-0.7-0.5c-0.4,0-0.5,0.2-0.5,0.4c0,0.2,0.1,0.3,0.7,0.5
			c1.2,0.3,1.3,0.7,1.3,1.3c0,0.6-0.5,1.2-1.5,1.2c-1,0-1.5-0.5-1.6-1.2H59.6z"/>
	</g>
</g>
</svg>
