<?xml version="1.0" encoding="utf-8"?>
<!-- Generator: Adobe Illustrator 25.0.1, SVG Export Plug-In . SVG Version: 6.00 Build 0)  -->
<svg version="1.1" id="Layer_1" xmlns="http://www.w3.org/2000/svg" xmlns:xlink="http://www.w3.org/1999/xlink" x="0px" y="0px"
	 viewBox="0 0 161 91.9" style="enable-background:new 0 0 161 91.9;" xml:space="preserve">
<style type="text/css">
	.st0{opacity:0.11;}
	.st1{clip-path:url(#SVGID_2_);fill:url(#SVGID_3_);}
	.st2{clip-path:url(#SVGID_5_);fill:url(#SVGID_6_);}
	.st3{fill:#020202;}
	.st4{fill:#F4F4F4;}
	.st5{fill:#BDDCAB;}
	.st6{fill:none;stroke:#555555;stroke-miterlimit:10;}
	.st7{fill:#555555;}
	.st8{fill:#FFFFFF;}
	.st9{fill:#9ED300;}
	.st10{fill:#7A9B00;}
	.st11{fill:#596D05;}
	.st12{fill:#3E4901;}
	.st13{fill:#262D00;}
	.st14{fill:none;}
	.st15{fill:url(#SVGID_7_);}
	.st16{fill:#92D400;}
	.st17{fill:none;stroke:#B2B2B2;stroke-width:2;stroke-miterlimit:10;}
	.st18{fill:url(#SVGID_8_);}
	.st19{fill:url(#SVGID_9_);}
	.st20{fill:url(#SVGID_10_);}
	.st21{fill:url(#SVGID_11_);}
	.st22{fill:none;stroke:#FFFFFF;stroke-miterlimit:10;}
	.st23{fill:none;stroke:#CECECE;stroke-miterlimit:10;}
	.st24{fill:#E43957;}
	.st25{opacity:0.3;fill:url(#SVGID_12_);}
	.st26{opacity:0.3;fill:url(#SVGID_13_);}
	.st27{opacity:0.3;fill:url(#SVGID_14_);}
	.st28{opacity:0.3;fill:url(#SVGID_15_);}
	.st29{opacity:0.3;fill:url(#SVGID_16_);}
	.st30{opacity:0.3;fill:url(#SVGID_17_);}
	.st31{fill:#121400;}
	.st32{opacity:0.3;fill:url(#SVGID_18_);}
	.st33{opacity:0.3;fill:url(#SVGID_19_);}
	.st34{opacity:0.3;fill:url(#SVGID_20_);}
	.st35{opacity:0.3;fill:url(#SVGID_21_);}
	.st36{opacity:0.3;fill:url(#SVGID_22_);}
	.st37{opacity:0.3;fill:url(#SVGID_23_);}
	.st38{opacity:0.3;fill:url(#SVGID_24_);}
	.st39{fill:#D3B6E9;}
	.st40{opacity:0.34;}
	.st41{clip-path:url(#SVGID_26_);fill:url(#SVGID_27_);}
	.st42{fill:#FFC38D;}
	.st43{fill:#D9E8F6;}
	.st44{fill:#FCB879;}
	.st45{fill:#FFE28E;}
	.st46{clip-path:url(#SVGID_29_);fill:url(#SVGID_30_);}
	.st47{clip-path:url(#SVGID_32_);fill:url(#SVGID_33_);}
	.st48{clip-path:url(#SVGID_35_);fill:url(#SVGID_36_);}
	.st49{fill:#001133;}
	.st50{fill:#009FE3;}
	.st51{fill:#E9ECEF;}
</style>
<g>
	<path class="st4" d="M31.2,79.6c0-2.1,0.6-4,1.8-5.7c1.3-1.8,3-2.9,5.2-3.1c2.1-0.3,3.9,0.3,5.5,1.6c1.8,1.5,2.8,3.4,3.1,5.7
		c0.4,2.4,0,4.7-1.3,6.7c-1.3,2-3.1,3.3-5.5,3.6c-2,0.3-3.9-0.3-5.4-1.6c-1.8-1.5-2.8-3.4-3.2-5.7C31.2,80.7,31.1,80.2,31.2,79.6z
		 M44,79.8c0-1.7-0.5-3.1-1.5-4.2c-0.8-0.9-1.8-1.5-3.1-1.6c-1.7-0.2-3.1,0.6-4.1,1.9C34.4,77,34,78.3,34,79.8
		c0,1.8,0.7,3.3,2.1,4.4c1.4,1.2,3.5,1.4,5,0.4C43.1,83.5,43.9,81.8,44,79.8z"/>
	<path class="st4" d="M129.6,79.6c0-2.7,0-5.3,0-8c0-0.5,0.1-0.6,0.6-0.6c1.8,0,3.5,0,5.3,0c1.5,0,2.9,0.6,4.1,1.6
		c1.9,1.6,2.9,3.6,3.2,6c0.3,2.5-0.3,4.7-1.8,6.7c-1.3,1.7-3,2.7-5.1,3c-0.2,0-0.4,0-0.7,0c-1.7,0-3.3,0-5,0c-0.6,0-0.6-0.1-0.6-0.6
		C129.6,84.9,129.6,82.3,129.6,79.6z M134.1,85.2c0.3,0,0.6,0,0.9,0c1.7,0,3.1-0.8,3.9-2.2c1.3-2.1,1.3-4.4,0.1-6.5
		c-0.8-1.5-2.1-2.3-3.8-2.4c-0.8-0.1-1.6,0-2.4,0c-0.3,0-0.4,0.1-0.3,0.3c0,0.9,0,1.9,0,2.8c0,2.6,0,5.1,0,7.7c0,0.4,0,0.4,0.4,0.4
		C133.3,85.2,133.7,85.2,134.1,85.2z"/>
	<path class="st4" d="M114.6,79.6c0-2.6,0-5.3,0-7.9c0-0.6,0.1-0.7,0.7-0.7c2.1,0,4.1,0,6.2,0c1.3,0,2.3,0.6,3.2,1.6
		c0.9,1.1,1.4,2.4,1.4,3.8c-0.1,2.1-1,3.7-2.9,4.7c-0.3,0.2-0.3,0.2-0.2,0.5c0.9,1.9,1.8,3.8,2.7,5.8c0.1,0.2,0.2,0.3,0.1,0.5
		c-0.1,0.2-0.2,0.3-0.4,0.3c-0.8,0-1.5,0-2.3,0c-0.2,0-0.3-0.2-0.4-0.4c-0.5-1-0.9-2.1-1.4-3.1c-0.4-1-0.9-2-1.3-3
		c-0.1-0.2-0.2-0.3-0.4-0.3c-0.6,0-1.1,0-1.7,0c-0.4,0-0.4,0-0.4,0.4c0,1.8,0,3.7,0,5.5c0,0.1,0,0.2,0,0.3c0,0.4-0.2,0.5-0.6,0.5
		c-0.6,0-1.1,0-1.7,0c-0.5,0-0.6-0.1-0.6-0.6C114.6,84.9,114.6,82.3,114.6,79.6z M117.5,76.4c0,0.7,0,1.4,0,2.1
		c0,0.3,0.1,0.4,0.3,0.4c1.1,0,2.2,0,3.2,0c0.2,0,0.4-0.1,0.7-0.2c1.3-0.6,1.8-2.4,1-3.6c-0.4-0.7-1-1.1-1.9-1c-1,0-2,0-3.1,0
		c-0.2,0-0.3,0.1-0.3,0.3C117.5,75,117.5,75.7,117.5,76.4z"/>
	<path class="st4" d="M145.6,79.6c0-2.6,0-5.3,0-7.9c0-0.6,0.1-0.7,0.7-0.7c2.8,0,5.6,0,8.4,0c0.5,0,0.7,0.1,0.7,0.7
		c0,0.6,0,1.1,0,1.7c0,0.5-0.2,0.7-0.7,0.7c-1.9,0-3.9,0-5.8,0c-0.4,0-0.4,0-0.4,0.4c0,1.1,0,2.1,0,3.2c0,0.4,0,0.4,0.4,0.4
		c1.6,0,3.2,0,4.7,0c0.5,0,0.7,0.1,0.7,0.6c0,0.6,0,1.1,0,1.7c0,0.5-0.1,0.7-0.6,0.7c-1.6,0-3.2,0-4.8,0c-0.4,0-0.4,0-0.4,0.4
		c0,1.2,0,2.3,0,3.5c0,0.4,0,0.4,0.4,0.4c1.9,0,3.8,0,5.7,0c0.6,0,0.7,0.2,0.7,0.7c0,0.5,0,1.1,0,1.6c0,0.5-0.1,0.7-0.7,0.7
		c-2.8,0-5.6,0-8.5,0c-0.5,0-0.6-0.1-0.6-0.6C145.6,85,145.6,82.3,145.6,79.6z"/>
	<path class="st4" d="M100.4,79.6c0-2.6,0-5.3,0-7.9c0-0.5,0.1-0.7,0.6-0.7c2.8,0,5.6,0,8.4,0c0.5,0,0.7,0.1,0.7,0.7
		c0,0.5,0,1.1,0,1.6c0,0.6-0.2,0.7-0.7,0.7c-1.9,0-3.8,0-5.7,0c-0.4,0-0.4,0-0.4,0.4c0,1.1,0,2.1,0,3.2c0,0.4,0,0.4,0.4,0.4
		c1.6,0,3.2,0,4.8,0c0.5,0,0.6,0.2,0.6,0.6c0,0.6,0,1.2,0,1.7c0,0.5-0.1,0.6-0.6,0.6c-1.6,0-3.2,0-4.7,0c-0.4,0-0.4,0-0.4,0.4
		c0,1.2,0,2.3,0,3.5c0,0.3,0.1,0.4,0.4,0.4c1.9,0,3.8,0,5.8,0c0.6,0,0.7,0.2,0.8,0.8c0,0.5,0,1.1,0,1.6c0,0.5-0.2,0.6-0.6,0.6
		c-2.8,0-5.7,0-8.5,0c-0.5,0-0.6-0.1-0.6-0.6C100.4,85,100.4,82.3,100.4,79.6z"/>
	<path class="st4" d="M24.1,85.2c1.2,0,2.3-0.5,3.2-1.3c0.4-0.3,0.6-0.3,0.9,0.1c0.4,0.4,0.7,0.9,1.1,1.3c0.2,0.3,0.2,0.5,0,0.8
		c-1.3,1.4-2.8,2.2-4.7,2.3c-3.3,0.2-5.6-1.4-7.2-4.2c-0.7-1.3-1.1-2.7-1.1-4.1c-0.1-2.9,0.7-5.3,2.8-7.4c1.2-1.2,2.8-1.9,4.5-2.1
		c2.3-0.2,4.2,0.6,5.8,2.3c0.2,0.2,0.2,0.5,0,0.7c-0.4,0.5-0.8,1-1.3,1.5c-0.3,0.3-0.4,0.3-0.7,0c-0.7-0.7-1.5-1.1-2.5-1.3
		c-1.4-0.2-2.6,0.1-3.7,1.1c-1.2,1.1-1.7,2.4-1.9,4c-0.1,1.6,0.2,3.1,1.2,4.3C21.4,84.6,22.6,85.2,24.1,85.2z"/>
	<path class="st4" d="M52,75.2c0,0.9,0.4,1.4,0.9,1.8c0.5,0.4,1.2,0.7,1.8,1c0.9,0.4,1.8,0.9,2.6,1.6c1,0.9,1.6,2,1.7,3.3
		c0.1,1.4-0.2,2.7-1.2,3.8c-0.8,1-1.9,1.5-3.1,1.6c-1.2,0.2-2.5-0.1-3.6-0.6c-0.7-0.3-1.4-0.8-2-1.4c-0.2-0.2-0.2-0.4-0.1-0.6
		c0.3-0.5,0.5-1.1,0.8-1.6c0.2-0.4,0.5-0.5,0.9-0.2c0.8,0.6,1.6,1.1,2.5,1.4c1.2,0.3,2.4-0.3,2.6-1.4c0.1-0.8-0.1-1.4-0.6-1.9
		c-0.5-0.5-1.2-0.9-1.9-1.2c-0.9-0.4-1.9-0.9-2.6-1.6c-1.1-1-1.6-2.2-1.7-3.7c0-1.4,0.4-2.7,1.4-3.7c0.8-0.7,1.7-1.1,2.8-1.2
		c1.9-0.2,3.5,0.4,5,1.5c0.4,0.3,0.4,0.6,0.2,1c-0.2,0.4-0.5,0.9-0.7,1.3c-0.3,0.5-0.6,0.5-1,0.2c-0.7-0.5-1.5-1-2.4-1.2
		c-0.9-0.2-1.8,0.2-2.2,1C52,74.9,52,75.1,52,75.2z"/>
	<path class="st4" d="M85.1,71c0.3,0,0.6,0,0.9,0c0.4,0,0.5,0.1,0.6,0.4c0.6,1.5,1.2,3.1,1.8,4.6c0.7,1.8,1.4,3.6,2.1,5.4
		c0,0.1,0.1,0.1,0.1,0.2c0,0.1,0,0.1,0.1,0.1c0.1,0,0.1-0.1,0.1-0.1c0.2-0.4,0.3-0.8,0.5-1.3c1.2-3,2.4-6,3.5-9
		c0.1-0.3,0.3-0.4,0.6-0.4c0.7,0,1.3,0,2,0c0.4,0,0.6,0.3,0.5,0.7c-0.4,0.9-0.7,1.8-1.1,2.8c-1.7,4.3-3.5,8.5-5.2,12.8
		c-0.1,0.3-0.3,0.6-0.4,0.9c-0.1,0.3-0.3,0.4-0.5,0.4c-0.3,0-0.4-0.2-0.5-0.4c-0.6-1.4-1.1-2.8-1.7-4.3c-1.6-4-3.2-7.9-4.8-11.9
		c0-0.1-0.1-0.2-0.1-0.3C83.5,71.3,83.6,71,84,71C84.3,71,84.7,71,85.1,71z"/>
	<path class="st4" d="M8.1,77c-0.4,0.9-0.7,1.7-1,2.6c-1,2.6-2.1,5.3-3.1,7.9c0,0.1-0.1,0.2-0.1,0.3c-0.1,0.3-0.3,0.4-0.7,0.4
		c-0.6,0-1.2,0-1.7,0c-0.5,0-0.7-0.3-0.5-0.7c0.2-0.5,0.4-0.9,0.6-1.4c1.6-3.8,3.1-7.7,4.7-11.5c0.5-1.2,0.9-2.3,1.4-3.5
		C7.7,71,7.8,70.8,8,70.7c0.3-0.1,0.5,0.1,0.7,0.4c0.5,1.2,0.9,2.4,1.4,3.5c1.4,3.4,2.8,6.9,4.2,10.3c0.3,0.8,0.7,1.7,1,2.5
		c0.2,0.5,0,0.7-0.5,0.7c-0.5,0-1,0-1.5,0c-0.6,0-0.7-0.1-0.9-0.6c-0.5-1.2-0.9-2.4-1.4-3.5c-0.9-2.3-1.8-4.5-2.7-6.7
		C8.2,77.2,8.2,77.1,8.1,77z"/>
	<path class="st4" d="M77.5,77c-0.3,0.7-0.5,1.3-0.7,1.9c-1.2,2.9-2.3,5.9-3.5,8.8c-0.2,0.4-0.3,0.5-0.8,0.5c-0.5,0-1.1,0-1.6,0
		c-0.6,0-0.7-0.4-0.5-0.7c0.3-0.7,0.6-1.4,0.9-2.1c0.8-2,1.6-4,2.5-6c1.1-2.7,2.2-5.4,3.3-8.1c0-0.1,0.1-0.2,0.1-0.2
		c0.1-0.2,0.3-0.4,0.6-0.4c0.3,0,0.4,0.2,0.5,0.4c0.5,1.1,0.9,2.3,1.4,3.4c1.7,4.3,3.5,8.6,5.2,12.9c0,0.1,0.1,0.2,0.1,0.3
		c0.1,0.3-0.1,0.5-0.4,0.5c-0.7,0-1.3,0-2,0c-0.3,0-0.5-0.2-0.6-0.5c-0.3-0.9-0.7-1.7-1-2.6c-1-2.6-2.1-5.2-3.1-7.8
		C77.7,77.3,77.6,77.1,77.5,77z"/>
	<path class="st4" d="M67.2,81c0,2.2,0,4.4,0,6.6c0,0.5-0.1,0.6-0.6,0.6c-0.6,0-1.1,0-1.7,0c-0.3,0-0.5-0.2-0.5-0.5
		c0-0.1,0-0.2,0-0.3c0-4.3,0-8.6,0-13c0-0.5,0-0.5-0.5-0.5c-0.9,0-1.8,0-2.6,0c-0.4,0-0.6-0.2-0.6-0.6c0-0.6,0-1.2,0-1.8
		c0-0.4,0.2-0.6,0.6-0.6c3,0,6.1,0,9.1,0c0.5,0,0.6,0.1,0.6,0.6c0,0.6,0,1.2,0,1.8c0,0.4-0.2,0.6-0.6,0.6c-0.9,0-1.8,0-2.8,0
		c-0.4,0-0.4,0-0.4,0.4C67.2,76.6,67.2,78.8,67.2,81z"/>
	<path class="st4" d="M158.3,88.4c-0.9,0-1.6-0.7-1.6-1.6c0-0.9,0.7-1.6,1.5-1.6c0.9,0,1.6,0.7,1.6,1.5
		C159.8,87.7,159.1,88.4,158.3,88.4z M158.3,88.1c0.7,0,1.3-0.6,1.3-1.4c0-0.7-0.6-1.3-1.3-1.3c-0.7,0-1.3,0.6-1.3,1.3
		C156.9,87.5,157.5,88.1,158.3,88.1z"/>
	<path class="st4" d="M157.6,86.8c0-0.3,0-0.6,0-0.8c0,0,0,0,0,0c0.2,0,0.3,0,0.5,0c0.1,0,0.2,0,0.3,0c0.1,0,0.2,0.1,0.3,0.2
		c0,0,0,0.1,0,0.1c0,0.1,0,0.1,0,0.2c0,0.1-0.1,0.2-0.1,0.3c-0.1,0.1-0.1,0.1-0.2,0.1c0,0,0,0,0,0c0.1,0.1,0.2,0.2,0.3,0.3
		c0.1,0.1,0.1,0.2,0.2,0.3c0,0,0.1,0.1,0.1,0.1c0,0,0,0,0,0c0,0,0,0,0,0c-0.1,0-0.2,0-0.3,0c0,0,0,0,0,0c-0.1-0.1-0.1-0.2-0.2-0.2
		c-0.1-0.1-0.2-0.2-0.3-0.3c0,0-0.1-0.1-0.1-0.1c0,0,0,0,0,0c-0.1,0-0.2,0-0.2,0c0,0,0,0,0,0c0,0.2,0,0.4,0,0.7c0,0,0,0,0,0
		c-0.1,0-0.1,0-0.2,0c0,0,0,0,0,0C157.6,87.4,157.6,87.1,157.6,86.8z M157.8,86.5c0,0.1,0,0.2,0,0.3c0,0,0,0,0,0c0.1,0,0.1,0,0.2,0
		c0,0,0.1,0,0.1,0c0.1,0,0.2-0.1,0.2-0.2c0-0.1,0-0.1,0-0.2c0,0,0-0.1,0-0.1c0-0.1-0.1-0.1-0.2-0.1c-0.1,0-0.1,0-0.2,0
		c-0.1,0-0.1,0-0.2,0c0,0,0,0,0,0C157.8,86.3,157.8,86.4,157.8,86.5z"/>
</g>
<g>
	<polygon class="st4" points="49.6,33.1 59.3,33.1 80.3,12.2 101.4,33.1 111.1,33.1 80.2,2.1 	"/>
	<polygon class="st4" points="60.8,33.1 70.9,33.1 80.7,23.7 90.2,33.1 99.8,33.1 80.3,13.6 	"/>
	<polygon class="st9" points="49.6,34.2 59.3,34.2 80.3,55.1 101.4,34.2 111.1,34.2 80.2,65.2 	"/>
	<polygon class="st9" points="60.8,34.2 70.9,34.2 80.7,43.6 90.2,34.2 99.8,34.2 80.3,53.7 	"/>
</g>
</svg>
