<svg width="1440" height="209" viewBox="0 0 1440 209" fill="none" xmlns="http://www.w3.org/2000/svg">
<g opacity="0.2">
<path d="M-24.0001 208L1715 208" stroke="#4B2118" stroke-width="0.636786" stroke-miterlimit="10"/>
<path d="M1292.09 1H1435.36V189.489H1292.09V1Z" fill="#F0EEE8" stroke="#4B2118" stroke-width="0.636786" stroke-miterlimit="10"/>
<path d="M1287.63 189.488H1435.36V195.856H1287.63V189.488Z" fill="#F0EEE8" stroke="#4B2118" stroke-width="0.636786" stroke-miterlimit="10"/>
<path d="M1287.63 65.9521H1435.36V72.32H1287.63V65.9521Z" fill="#F0EEE8" stroke="#4B2118" stroke-width="0.636786" stroke-miterlimit="10"/>
<path d="M1283.81 195.856H1435.36V201.588H1283.81V195.856Z" fill="#F0EEE8" stroke="#4B2118" stroke-width="0.636786" stroke-miterlimit="10"/>
<path d="M1280.62 201.588H1435.36V207.956H1280.62V201.588Z" fill="#F0EEE8" stroke="#4B2118" stroke-width="0.636786" stroke-miterlimit="10"/>
<path d="M1363.76 88.877C1364.71 88.8804 1365.65 88.9375 1366.59 89.0481C1360.6 89.7545 1355.08 92.6558 1351.07 97.2001C1347.07 101.744 1344.86 107.615 1344.86 113.695V189.489H1339.21V113.695C1339.2 110.44 1339.84 107.215 1341.07 104.206C1342.3 101.197 1344.11 98.4623 1346.39 96.1578C1348.67 93.8532 1351.38 92.0241 1354.36 90.7748C1357.34 89.5256 1360.53 88.8807 1363.76 88.877Z" fill="#F0EEE8" stroke="#4B2118" stroke-width="0.636786" stroke-miterlimit="10"/>
<path d="M1366.57 89.5137C1372.54 90.2073 1378.05 93.0911 1382.04 97.6155C1386.04 102.14 1388.25 107.988 1388.24 114.046V189.489H1344.94V114.046C1344.93 107.996 1347.13 102.155 1351.12 97.6322C1355.11 93.1093 1360.6 90.2201 1366.57 89.5137Z" fill="#F0EEE8" stroke="#4B2118" stroke-width="0.636786" stroke-miterlimit="10"/>
<path d="M1319.93 11.8252C1320.85 11.827 1321.76 11.9131 1322.65 12.0825C1319.18 12.7264 1316.03 14.5811 1313.77 17.3236C1311.51 20.0661 1310.27 23.5228 1310.27 27.0919V65.952H1304.82V27.0562C1304.83 23.014 1306.42 19.1401 1309.26 16.2845C1312.09 13.429 1315.93 11.8252 1319.93 11.8252Z" fill="#F0EEE8" stroke="#4B2118" stroke-width="0.636786" stroke-miterlimit="10"/>
<path d="M1322.65 12.4619C1326.23 13.0998 1329.46 14.9408 1331.79 17.6641C1334.12 20.3874 1335.39 23.8206 1335.39 27.3656V65.952H1309.92V27.3514C1309.92 23.8088 1311.19 20.3791 1313.52 17.6587C1315.85 14.9382 1319.08 13.0994 1322.65 12.4619Z" fill="#F0EEE8" stroke="#4B2118" stroke-width="0.636786" stroke-miterlimit="10"/>
<path d="M1363.87 11.8252C1364.78 11.8273 1365.69 11.9134 1366.59 12.0825C1363.11 12.7249 1359.97 14.5789 1357.7 17.3216C1355.44 20.0643 1354.2 23.5218 1354.2 27.0919V65.952H1348.76V27.0562C1348.77 23.0147 1350.36 19.1407 1353.19 16.2849C1356.02 13.4292 1359.86 11.8252 1363.87 11.8252Z" fill="#F0EEE8" stroke="#4B2118" stroke-width="0.636786" stroke-miterlimit="10"/>
<path d="M1366.28 12.4619C1369.76 13.1013 1372.91 14.9429 1375.18 17.6661C1377.45 20.3893 1378.69 23.8216 1378.69 27.3656V65.952H1353.85V27.3514C1353.86 23.8078 1355.1 20.3772 1357.37 17.6567C1359.64 14.9361 1362.79 13.0979 1366.28 12.4619Z" fill="#F0EEE8" stroke="#4B2118" stroke-width="0.636786" stroke-miterlimit="10"/>
<path d="M1407.17 11.8252C1408.08 11.8273 1408.99 11.9134 1409.89 12.0825C1406.41 12.7251 1403.27 14.5794 1401.01 17.3222C1398.75 20.065 1397.51 23.5224 1397.51 27.0919V65.952H1392.06V27.0562C1392.07 23.0147 1393.66 19.1407 1396.49 16.2849C1399.33 13.4292 1403.16 11.8252 1407.17 11.8252Z" fill="#F0EEE8" stroke="#4B2118" stroke-width="0.636786" stroke-miterlimit="10"/>
<path d="M1410.2 12.4619C1413.69 13.0968 1416.84 14.9351 1419.11 17.6567C1421.38 20.3782 1422.63 23.8105 1422.63 27.3554V65.952H1397.79V27.3554C1397.79 23.8125 1399.04 20.3819 1401.3 17.6606C1403.57 14.9394 1406.72 13.0997 1410.2 12.4619Z" fill="#F0EEE8" stroke="#4B2118" stroke-width="0.636786" stroke-miterlimit="10"/>
<path d="M1167.28 58.0788L1191.79 25.1982L1216.31 58.0788V207.956H1167.28V58.0788Z" stroke="#4B2118" stroke-width="0.636786" stroke-miterlimit="10"/>
<path d="M1062.84 57.6738H1167.28V207.955H1062.84V57.6738Z" stroke="#4B2118" stroke-width="0.636786" stroke-miterlimit="10"/>
<path d="M1142.44 143.64H1153.9V167.838H1142.44V143.64Z" stroke="#4B2118" stroke-width="0.636786" stroke-miterlimit="10"/>
<path d="M1120.15 143.64H1131.62V167.838H1120.15V143.64Z" stroke="#4B2118" stroke-width="0.636786" stroke-miterlimit="10"/>
<path d="M1097.87 143.64H1109.33V167.838H1097.87V143.64Z" stroke="#4B2118" stroke-width="0.636786" stroke-miterlimit="10"/>
<path d="M1075.58 143.64H1087.04V167.838H1075.58V143.64Z" stroke="#4B2118" stroke-width="0.636786" stroke-miterlimit="10"/>
<path d="M1090.86 177.39C1086.81 177.39 1082.92 179 1080.06 181.866C1077.19 184.732 1075.58 188.619 1075.58 192.673V207.955H1106.14V192.673C1106.14 188.619 1104.53 184.732 1101.67 181.866C1098.8 179 1094.92 177.39 1090.86 177.39Z" fill="#F0EEE8" stroke="#4B2118" stroke-width="0.636786" stroke-miterlimit="10"/>
<path d="M1034.51 166.564C1030.54 166.564 1026.73 168.18 1023.92 171.056C1021.12 173.932 1019.54 177.832 1019.54 181.899V207.956H1049.47V181.899C1049.47 177.832 1047.89 173.932 1045.09 171.056C1042.28 168.18 1038.48 166.564 1034.51 166.564Z" fill="#F0EEE8" stroke="#4B2118" stroke-width="0.636786" stroke-miterlimit="10"/>
<path d="M921.47 153.829C919.464 153.829 917.477 154.223 915.624 154.988C913.771 155.754 912.087 156.876 910.668 158.29C909.25 159.704 908.124 161.383 907.357 163.231C906.589 165.079 906.194 167.059 906.194 169.059V207.956H936.76V169.059C936.76 167.058 936.364 165.076 935.595 163.228C934.827 161.379 933.7 159.699 932.28 158.285C930.86 156.87 929.175 155.749 927.32 154.984C925.465 154.22 923.477 153.827 921.47 153.829Z" fill="#F0EEE8" stroke="#4B2118" stroke-width="0.636786" stroke-miterlimit="10"/>
<path d="M974.96 153.829C972.954 153.829 970.967 154.223 969.114 154.988C967.26 155.754 965.577 156.876 964.158 158.29C962.74 159.704 961.614 161.383 960.847 163.231C960.079 165.079 959.684 167.059 959.684 169.059V207.956H990.25V169.059C990.25 167.058 989.854 165.076 989.085 163.228C988.317 161.379 987.19 159.699 985.77 158.285C984.35 156.87 982.665 155.749 980.81 154.984C978.955 154.22 976.967 153.827 974.96 153.829Z" fill="#F0EEE8" stroke="#4B2118" stroke-width="0.636786" stroke-miterlimit="10"/>
<path d="M1062.84 57.6743L1087.5 25.1982H1191.47L1166.82 57.6743H1062.84Z" stroke="#4B2118" stroke-width="0.636786" stroke-miterlimit="10"/>
<path d="M1142.44 72.3203H1153.9V95.8814H1142.44V72.3203Z" stroke="#4B2118" stroke-width="0.636786" stroke-miterlimit="10"/>
<path d="M1120.15 72.3203H1131.62V95.8814H1120.15V72.3203Z" stroke="#4B2118" stroke-width="0.636786" stroke-miterlimit="10"/>
<path d="M1097.87 72.3203H1109.33V95.8814H1097.87V72.3203Z" stroke="#4B2118" stroke-width="0.636786" stroke-miterlimit="10"/>
<path d="M1075.58 72.3203H1087.04V95.8814H1075.58V72.3203Z" stroke="#4B2118" stroke-width="0.636786" stroke-miterlimit="10"/>
<path d="M1142.44 107.98H1153.9V132.178H1142.44V107.98Z" stroke="#4B2118" stroke-width="0.636786" stroke-miterlimit="10"/>
<path d="M1120.15 107.98H1131.62V132.178H1120.15V107.98Z" stroke="#4B2118" stroke-width="0.636786" stroke-miterlimit="10"/>
<path d="M1097.87 107.98H1109.33V132.178H1097.87V107.98Z" stroke="#4B2118" stroke-width="0.636786" stroke-miterlimit="10"/>
<path d="M1075.58 107.98H1087.04V132.178H1075.58V107.98Z" stroke="#4B2118" stroke-width="0.636786" stroke-miterlimit="10"/>
<path d="M1200.39 116.258H1224.59V207.955H1200.39V116.258Z" fill="#F0EEE8" stroke="#4B2118" stroke-width="0.636786" stroke-miterlimit="10"/>
<path d="M1224.59 116.258H1236.05V207.955H1224.59V116.258Z" fill="#F0EEE8" stroke="#4B2118" stroke-width="0.636786" stroke-miterlimit="10"/>
<path d="M1318.19 132.178H1327.11V141.73H1318.19V132.178Z" fill="#F0EEE8" stroke="#4B2118" stroke-width="0.636786" stroke-miterlimit="10"/>
<path d="M1215.04 150.801C1215.04 182.359 1229.58 195.22 1247.51 195.22C1265.44 195.22 1279.99 182.359 1279.99 150.78C1279.99 119.201 1265.45 85.6924 1247.51 85.6924C1229.57 85.6924 1215.04 119.229 1215.04 150.801Z" fill="#F0EEE8" stroke="#4B2118" stroke-width="0.636786" stroke-miterlimit="10"/>
<path d="M1247.44 207.955C1247.44 207.955 1252.56 191.133 1244.63 167.017C1236.7 142.902 1252.61 111.801 1252.61 111.801" stroke="#4B2118" stroke-width="0.636786" stroke-miterlimit="10"/>
<path d="M1243.05 156.376C1243.05 156.376 1229.48 151.511 1223.95 137.272" stroke="#4B2118" stroke-width="0.636786" stroke-miterlimit="10"/>
<path d="M1245.6 130.893C1245.6 130.893 1250.43 131.485 1258.34 123.899" stroke="#4B2118" stroke-width="0.636786" stroke-miterlimit="10"/>
<path d="M1247.51 179.3C1247.51 179.3 1260.26 179.039 1267.89 169.111" stroke="#4B2118" stroke-width="0.636786" stroke-miterlimit="10"/>
<path d="M1218.22 174.843C1218.22 174.843 1214.61 190.564 1206.12 199.677" stroke="#4B2118" stroke-width="0.636786" stroke-linejoin="round"/>
</g>
</svg>
