<svg width="491" height="102" viewBox="0 0 491 102" fill="none" xmlns="http://www.w3.org/2000/svg">
<g opacity="0.5">
<path opacity="0.2" d="M367.686 98.1712H488.664L479.782 93.9563C475.742 92.0374 472.56 88.6582 470.861 84.4845L469.323 80.7905C466.828 74.6735 462.119 69.7499 456.156 67.0249C453.103 65.6299 449.76 65.0059 446.415 65.2067C443.071 65.4074 439.824 66.4268 436.956 68.1773C434.962 69.3857 432.612 69.8484 430.316 69.485C428.02 69.1215 425.922 67.9548 424.389 66.1882L419.519 60.663C417.106 57.8945 414.029 55.8011 410.584 54.5845C407.139 53.3679 403.443 53.0691 399.85 53.717C395.656 54.4747 391.785 56.4908 388.739 59.5032C385.694 62.5157 383.615 66.3851 382.773 70.6083L381.906 74.8707L378.176 76.4493C375.894 77.405 373.873 78.9001 372.281 80.8092C370.69 82.7182 369.574 84.9855 369.028 87.4208C368.623 89.2649 367.741 90.9673 366.473 92.3541C365.205 93.7408 363.595 94.7622 361.808 95.3139L352.528 98.187L367.686 98.1712Z" fill="#F0EEE8" stroke="#4B2118" stroke-width="0.76" stroke-miterlimit="10"/>
<path opacity="0.2" d="M222.508 33.3538H149.752L155.094 30.484C157.523 29.1775 159.437 26.8768 160.459 24.0352L161.384 21.5201C162.884 17.3553 165.716 14.0031 169.302 12.1477C171.139 11.198 173.149 10.7732 175.16 10.9098C177.172 11.0465 179.124 11.7406 180.849 12.9323C182.048 13.7551 183.461 14.0702 184.842 13.8227C186.223 13.5752 187.485 12.7809 188.407 11.5781L191.336 7.81624C192.787 5.93131 194.637 4.50602 196.709 3.67771C198.781 2.84939 201.004 2.64597 203.165 3.08706C205.687 3.60291 208.015 4.97559 209.847 7.02661C211.678 9.07763 212.929 11.7121 213.435 14.5876L213.956 17.4896L216.2 18.5644C217.572 19.2151 218.787 20.233 219.744 21.5328C220.702 22.8326 221.373 24.3763 221.701 26.0343C221.944 27.2899 222.475 28.449 223.238 29.3932C224 30.3373 224.968 31.0327 226.043 31.4084L231.624 33.3645L222.508 33.3538Z" fill="#F0EEE8" stroke="#4B2118" stroke-width="0.76" stroke-miterlimit="10"/>
<path opacity="0.2" d="M136.707 98.167H2.19205L12.068 92.8759C16.5597 90.467 20.0985 86.2252 21.9874 80.9858L23.697 76.3487C26.4713 68.6698 31.7077 62.4892 38.3374 59.0684C41.7324 57.3172 45.4492 56.534 49.1681 56.786C52.8869 57.038 56.4964 58.3177 59.6862 60.515C61.9028 62.0319 64.5153 62.6129 67.0685 62.1566C69.6217 61.7003 71.9538 60.2357 73.6584 58.0181L79.0737 51.0822C81.7562 47.6068 85.1776 44.979 89.008 43.4517C92.8385 41.9245 96.9489 41.5495 100.943 42.3627C105.606 43.3138 109.911 45.8447 113.297 49.6263C116.684 53.4079 118.995 58.2652 119.931 63.5668L120.895 68.9173L125.043 70.899C127.579 72.0987 129.827 73.9756 131.597 76.372C133.366 78.7685 134.607 81.6147 135.214 84.6717C135.664 86.9867 136.645 89.1238 138.055 90.8646C139.465 92.6054 141.255 93.8876 143.241 94.5802L153.56 98.1868L136.707 98.167Z" fill="#F0EEE8" stroke="#4B2118" stroke-width="0.76" stroke-miterlimit="10"/>
</g>
</svg>
